<svg width="22" height="20" viewBox="0 0 22 20" fill="none" xmlns="http://www.w3.org/2000/svg">
<path d="M8.12742 3.58938H20.3633L13.0962 8.57125L8.15255 5.18238C8.3408 4.67838 8.34267 4.10875 8.12742 3.58938ZM4.92755 6.48063L6.71105 5.39463C7.24055 5.0725 7.41567 4.38475 7.1063 3.84813L5.49605 1.05925C5.33105 0.773128 5.08093 0.589003 4.75843 0.516253C4.43593 0.443503 4.13142 0.502003 3.85955 0.689503L0.922925 2.7115C-0.4747 7.63638 5.80618 18.2988 10.6238 19.5138L13.8424 17.9819C14.1409 17.8394 14.3442 17.605 14.4428 17.2893C14.5407 16.9739 14.5062 16.6653 14.3412 16.3791L12.7313 13.5903C12.4215 13.0533 11.7383 12.862 11.1942 13.1594L9.36193 14.161C7.54993 12.5493 5.4173 8.8555 4.92755 6.48063ZM21.2524 4.22988L13.3864 9.622C13.2027 9.74725 12.966 9.73788 12.795 9.6145L7.57317 6.03513C7.47417 6.12438 7.3658 6.20538 7.24805 6.27738L6.12005 6.96438C6.71255 8.87688 8.17918 11.4168 9.5393 12.8864L10.6984 12.253C11.7338 11.6871 13.0354 12.052 13.6257 13.0739L14.6239 14.8034H20.4405C20.8995 14.8034 21.2753 14.4276 21.2753 13.9683V4.4245C21.2749 4.35738 21.267 4.29213 21.2524 4.22988Z" fill="#4050E7"/>
</svg>
