<svg width="66" height="53" viewBox="0 0 66 53" fill="none" xmlns="http://www.w3.org/2000/svg">
<path fill-rule="evenodd" clip-rule="evenodd" d="M1 13.9143C6.2093 13.1755 9.18605 10.9592 15.8837 5.04895C23.0067 -1.23662 33 0.616241 38.9535 5.04895C44.1628 8.92756 50.1163 11.698 57.5581 10.9592C64.4919 10.2709 65 6.52653 65 6.52653V23.789V30.9063V48.2C65 50.4091 63.2091 52.2 61 52.2H5C2.79086 52.2 1 50.4091 1 48.2V30.9063V23.789V13.9143Z" fill="white" fill-opacity="0.2"/>
<path d="M1 13.7858C6.2093 13.0543 9.18605 10.8601 15.8837 5.00864C23.0067 -1.21436 33 0.620061 38.9535 5.00864C44.1628 8.84865 50.1163 11.5915 57.5581 10.8601C64.4919 10.1786 65 6.47151 65 6.47151" stroke="white" stroke-width="2" stroke-linecap="round"/>
</svg>
