<?xml version="1.0" encoding="utf-8"?>
<!-- Generator: Adobe Illustrator 16.0.0, SVG Export Plug-In . SVG Version: 6.00 Build 0)  -->
<!DOCTYPE svg PUBLIC "-//W3C//DTD SVG 1.1//EN" "http://www.w3.org/Graphics/SVG/1.1/DTD/svg11.dtd">
<svg version="1.1" id="Layer_1" xmlns="http://www.w3.org/2000/svg" xmlns:xlink="http://www.w3.org/1999/xlink" x="0px" y="0px"
	 width="402.017px" height="438.902px" viewBox="0 0 402.017 438.902" enable-background="new 0 0 402.017 438.902"
	 xml:space="preserve">
<path fill="#543D98" d="M370.056,54.094c3.684-1.228,7.377-1.228,11.069,1.232c3.684,2.456,6.14,4.916,7.367,8.604
	c1.237,3.688,1.237,7.376-1.228,11.064l-180.72,312.273l27.045,45.485c1.229,1.228,1.229,2.465,0,3.692
	c0,1.229-1.228,2.456-3.692,2.456H174.58c-1.228,0-2.46-1.228-3.688-2.456c-1.232-1.228-1.232-2.465,0-3.692l27.045-45.485
	L30.738,100.813c0-1.229,0-2.456,0-3.688c0-1.228,1.228-1.228,2.46-2.46c1.228,0,1.228-1.229,2.456,0
	c1.232,0,1.232,1.232,2.46,1.232l163.515,282.768L379.897,72.535c1.228-1.229,1.228-3.688,1.228-6.145
	c0-2.46-1.228-3.688-3.692-4.916c-1.229-1.232-3.693-1.232-4.921-1.232c-2.456,1.232-3.684,1.232-4.911,3.688
	c-1.229,2.46-1.229,3.688-1.229,6.148c0,2.456,1.229,3.688,3.684,4.916c1.229,1.232,1.229,1.232,2.456,2.46c0,1.229,0,2.456,0,2.456
	c0,1.232-1.228,1.232-2.456,1.232c-1.228,0-2.455,0-2.455,0c-3.693-2.46-6.148-4.916-7.386-8.608
	c-1.228-3.688-1.228-7.377,1.237-11.061C362.68,57.782,365.136,55.326,370.056,54.094z M222.53,430.298l-20.901-36.881l-20.9,36.881
	H222.53z"/>
<path fill="#543D98" d="M38.114,0h2.456h2.46c2.46,0,4.916,1.232,7.376,2.46c2.461,1.232,4.916,2.461,6.145,4.916
	c3.692,3.688,6.148,7.377,8.608,12.297c1.232,2.456,1.232,3.688,1.232,6.148v8.604v1.228l-1.232,3.688l-1.228,3.688l-1.232,2.461
	l1.232-4.916l1.228-4.921v-1.228v-1.229v-4.92v-2.456c0-1.232-1.228-3.692-2.46-6.148c-2.456-4.92-4.916-8.608-8.604-11.064
	c-1.228-1.232-3.688-2.46-6.148-3.688C45.49,3.692,43.03,2.46,40.57,2.46h-1.229h-2.46h-2.46h-1.229c-2.455,0-4.916,0-8.604,1.232
	c-4.921,2.456-9.837,4.916-13.525,9.832c-3.688,4.921-6.148,9.837-6.148,14.753c0,2.46,0,4.92,0,7.376
	c0,2.46,1.232,4.921,2.461,7.376l1.232,1.229l29.505,50.406c0,1.232,1.228,1.232,0,2.46c0,1.232-1.232,1.232-1.232,2.46
	c-1.228,0-1.228,1.229-2.46,0c-1.229,0-1.229-1.228-2.456-1.228l-27.05-47.95l-2.455-3.688C1.229,43.029,0,40.574,0,38.113
	c0-2.46,0-6.148,0-9.836c1.229-6.148,3.688-12.292,8.609-17.213c3.684-4.916,8.604-8.604,15.98-9.832C28.277,0,30.738,0,33.193,0
	h1.229H38.114z"/>
<path fill="#3575BB" d="M313.501,54.094c3.685-1.228,7.377-1.228,11.069,1.232c3.684,2.456,6.14,4.916,7.367,8.604
	s0,7.376-1.228,11.064L206.541,290.148l54.09,94.655c1.228,1.228,1.228,2.465,0,3.692c0,1.228-1.229,1.228-2.456,1.228H146.298
	c-1.228,0-2.455,0-3.688-1.228c-1.229-1.228-1.229-2.465,0-3.692l55.326-94.655L87.288,100.813c0-1.229-1.229-2.456,0-2.456
	c0-1.232,1.228-1.232,1.228-2.46c1.232,0,2.46-1.232,2.46,0c1.229,0,1.229,1.228,2.461,1.228l108.188,185.64L323.333,72.535
	c1.237-1.229,1.237-3.688,1.237-4.916c0-2.461-1.237-3.688-3.692-4.916c-1.237-1.229-3.692-1.229-4.921-1.229
	c-2.456,0-3.684,1.229-4.911,3.684c-1.229,1.232-1.229,3.688-1.229,6.148c0,2.461,1.229,3.688,3.684,4.921
	c1.229,0,1.229,1.228,1.229,2.456c0,1.228,0,2.46,0,2.46c0,1.228-1.229,1.228-2.456,1.228s-2.456,0-2.456,0
	c-3.692-2.46-6.157-4.916-7.385-8.604c-1.228-3.688,0-7.377,1.228-11.064C307.354,57.782,309.817,55.326,313.501,54.094z
	 M152.446,382.348h98.353l-49.174-84.832L152.446,382.348z"/>
<path fill="#3575BB" d="M90.976,0h2.461h2.46h2.456c2.46,0,4.92,1.232,7.376,2.46c2.46,1.232,4.921,2.461,6.148,4.916
	c3.688,3.688,6.148,7.377,8.604,12.297c1.232,2.456,1.232,3.688,1.232,6.148v2.456v3.688v1.232v1.229v1.228l-1.232,3.688v1.232
	v1.228l-2.456,8.604l1.228-2.456c0,0,0,0,0-1.232V45.49l1.229-3.688l1.232-3.688v-1.232v-3.684l-1.232-6.148
	c0-2.46-1.229-3.688-2.456-6.147c-1.232-3.688-4.921-8.604-8.608-11.064c-2.456-1.229-3.688-2.461-6.145-3.688
	c-2.46-1.228-4.92-2.456-7.376-2.456h-2.46h-2.461h-1.228c-2.46,0-4.92,0-8.604,1.229c-6.147,2.455-9.836,4.916-13.524,9.832
	c-3.688,4.92-6.148,9.836-6.148,14.752c0,2.46,0,4.921,0,7.376c0,2.461,1.229,4.921,2.461,7.377l1.228,1.232l29.505,50.406
	c0,1.228,1.232,1.228,0,2.46c0,1.228-1.228,1.228-1.228,2.456c-1.232,0-2.461,1.228-2.461,0c-1.228,0-1.228-1.229-2.455-1.229
	l-27.05-47.95l-1.228-3.684c-1.232-2.46-1.232-6.148-2.46-8.608c0-3.688,0-6.145,0-9.837c1.228-6.144,3.688-12.292,7.376-17.208
	c3.688-4.921,9.837-8.604,15.984-9.837c3.685-1.228,6.145-1.228,8.604-1.228L90.976,0z"/>
<path fill="#027A6C" d="M275.383,76.228l-68.842,118.021l82.367,142.614c1.228,1.228,1.228,2.456,0,3.684
	c-1.229,1.228-2.456,1.228-3.684,1.228H118.021c-1.228,0-2.46,0-3.688-1.228c-1.229-1.228-1.229-2.456,0-3.684l82.371-142.614
	l-54.094-93.436c0-1.229,0-2.456,0-2.456c0-1.232,1.228-1.232,1.228-2.46c1.232,0,2.46-1.232,2.46,0
	c1.232,0,1.232,1.228,2.461,1.228l52.861,89.748l66.396-114.337c1.229-1.229,1.229-3.688,1.229-4.916
	c0-2.461-1.229-3.688-3.693-4.916c-1.228-1.232-3.692-1.232-6.148-1.232c-2.455,0-3.684,1.232-4.911,3.688
	c-1.228,1.232-1.228,3.688-1.228,6.148c0,2.461,1.228,3.688,3.684,4.921c1.228,0,1.228,1.228,1.228,2.456c0,1.228,0,2.46,0,2.46
	c0,1.228-1.228,1.228-2.456,1.228c-1.228,0-2.455,0-2.455,0c-3.693-2.46-6.158-4.916-7.386-8.604c-1.228-3.688,0-7.377,1.228-11.064
	c2.465-3.688,4.921-6.148,8.613-7.377c3.684-1.232,7.377,0,11.061,1.229c3.692,2.46,6.148,4.916,7.376,8.604
	C277.848,68.847,276.611,72.535,275.383,76.228z M125.401,334.406h153.675L201.62,201.624L125.401,334.406z"/>
<path fill="#027A6C" d="M146.298,0h2.461h2.455h2.461c2.46,0,4.916,1.232,7.376,2.46c2.46,1.232,4.921,2.461,6.148,4.916
	c3.688,3.688,6.148,7.377,8.604,12.297c1.232,2.456,1.232,3.688,2.46,6.148v6.144v2.461v1.228v1.228l-1.228,6.148l-1.232,2.461
	l-1.229,2.46l2.461-6.148v-1.228l1.228-4.921v-1.228v-1.229v-2.46c0-1.232,0-1.232,0-2.46c0-2.456-1.228-3.688-2.46-6.148
	c-2.456-4.916-4.916-8.604-8.604-11.064c-2.46-1.228-3.688-2.456-6.148-3.688c-2.46-1.228-4.916-2.455-7.376-2.455h-2.461h-1.228
	h-2.456h-1.232c-2.46,0-4.916,0-8.604,1.228c-4.916,2.46-9.837,4.916-13.525,9.837c-3.688,4.916-6.148,9.836-6.148,14.752
	c0,2.46,0,4.916,0,7.376c0,2.461,1.232,4.916,2.461,7.377l30.732,51.634c0,1.232,0,1.232,0,2.46c0,1.229-1.228,1.229-1.228,2.456
	c-1.228,0-1.228,1.232-2.456,0c-1.232,0-1.232-1.228-2.46-1.228l-27.05-47.946l-2.455-3.688c-1.232-2.46-1.232-6.148-2.461-8.604
	c0-2.461,0-6.148,0-9.837c1.229-6.148,3.688-12.292,7.377-17.213c3.688-4.916,9.836-8.604,15.98-9.832
	c3.692-1.232,6.148-1.232,8.608-1.232L146.298,0z"/>
<path fill="#68A042" d="M231.125,46.718l1.237-3.688l1.228-3.688v-2.461v-1.228v-1.228v-1.229l-1.228-6.148
	c0-1.228-1.237-3.688-2.465-6.147c-2.456-4.916-4.911-8.604-8.595-11.064c-1.237-1.229-3.693-2.461-6.158-3.688
	c-2.455-1.228-4.911-2.46-7.371-2.46h-2.461h-1.228h-2.46h-1.229c-2.46,0-4.916,0-8.608,1.232c-6.144,2.455-9.832,4.916-13.52,9.832
	c-3.688,4.92-6.148,9.836-6.148,14.752c0,2.46,0,4.921,0,7.376c0,2.461,1.228,4.921,2.46,7.377l1.228,1.232l29.505,50.406
	c0,1.228,1.229,1.228,0,2.46c0,1.228-1.228,1.228-1.228,2.456c-1.228,0-2.46,1.228-2.46,0c-1.229,0-1.229-1.229-2.46-1.229
	l-27.045-47.95l-1.232-3.684c-1.229-2.46-1.229-6.148-2.456-8.608c0-2.461,0-6.145,0-9.837c1.228-6.144,3.688-12.292,8.604-17.208
	c3.692-4.921,8.608-8.608,15.984-9.837c3.688-1.228,6.145-1.228,8.604-1.228h1.232h1.228h2.456h2.465
	c2.455,0,4.911,1.228,7.376,2.456c2.456,1.232,4.921,2.46,6.148,4.92c3.684,3.688,6.14,7.377,8.595,12.293
	c1.237,2.46,1.237,3.688,1.237,6.147v6.148v1.229v2.455l-1.237,4.921v1.228v1.229V46.718z M231.125,46.718
	C231.125,47.95,231.125,47.95,231.125,46.718L231.125,46.718z"/>
<path fill="#68A042" d="M313.501,293.832H90.976c-1.228,0-2.455-1.228-3.688-2.455c-1.229-1.229-1.229-2.465,0-3.693L212.689,71.307
	c1.228-1.228,1.228-3.688,1.228-4.916c0-2.46-1.228-3.688-3.684-4.92c-1.228-1.229-3.692-1.229-4.921-1.229
	c-2.46,0-3.688,1.229-4.92,3.688c-1.228,1.228-1.228,3.688-1.228,6.148c0,2.456,1.228,3.688,3.688,4.916
	c1.232,0,1.232,1.232,1.232,2.46c0,1.229,0,2.456,0,2.456c0,1.232-1.232,1.232-2.46,1.232c-1.232,0-2.46,0-2.46,0
	c-3.688-2.46-6.148-4.916-7.377-8.608c-1.228-3.688,0-7.377,1.229-11.064c2.46-3.688,4.92-6.145,8.608-7.377
	c3.688-1.228,7.381-1.228,11.064,1.232c3.684,2.456,6.148,4.916,7.376,8.604s0,7.376-1.228,11.064l-12.297,22.129l110.645,190.56
	c1.228,1.229,1.228,2.465,0,3.693C315.957,293.832,314.729,293.832,313.501,293.832z M97.124,286.456h210.229L202.853,105.732
	L97.124,286.456z"/>
<path fill="#F9C02D" d="M260.631,0h3.692h1.228c2.465,0,4.921,1.232,7.377,2.46c2.455,1.232,4.92,2.461,6.148,4.916
	c3.692,3.688,6.148,7.377,8.604,12.297c1.229,2.456,1.229,3.688,1.229,6.148v2.456v4.92v1.229v1.228l-1.229,6.148l-1.228,3.688
	v-1.232v-1.229l1.228-3.688l1.229-3.688v-1.228v-1.229v-1.232l-1.229-6.144c0-2.46-1.228-3.692-2.455-6.148
	c-1.229-3.688-4.912-8.608-8.604-11.064c-2.465-1.232-3.692-2.46-6.148-3.688c-2.456-1.229-4.921-2.461-7.376-2.461h-2.465h-1.229
	h-2.455h-1.229c-2.455,0-4.92,0-8.604,1.232c-6.148,2.456-9.832,4.916-13.525,9.832c-3.692,4.921-6.148,9.837-6.148,14.753
	c0,2.46,0,4.92,0,7.376c0,2.46,1.229,4.921,2.456,7.376l30.733,51.635c0,1.232,1.236,1.232,0,2.46c0,1.232-1.229,1.232-1.229,2.46
	c-1.228,0-2.455,1.229-2.455,0c-1.229,0-1.229-1.228-2.456-1.228l-27.05-47.95l-1.228-3.688c-1.228-2.46-1.228-6.144-2.456-8.604
	c0-3.688,0-6.148,0-9.836c1.229-6.148,3.684-12.292,7.367-17.213c3.693-4.916,9.842-8.604,15.99-9.832
	C250.799,0,253.264,0,255.719,0h1.229H260.631z"/>
<path fill="#F9C02D" d="M260.631,97.124l83.604,143.838c1.228,1.228,1.228,2.465,0,3.692s-2.456,2.465-3.684,2.465H62.699
	c-1.229,0-2.456-1.237-3.688-2.465c-1.228-1.228-1.228-2.465,0-3.692l97.124-168.427c1.228-1.229,1.228-3.688,1.228-4.916
	c0-2.461-1.228-3.688-3.684-4.916c-1.232-1.229-3.692-1.229-6.148-1.229c-2.46,0-3.688,1.229-4.92,3.684
	c0,1.232,0,3.688,1.232,4.921c0,2.456,1.228,3.688,3.688,4.916c1.229,0,1.229,1.232,1.229,2.46c0,1.229,0,2.456,0,2.456
	c0,1.232-1.229,1.232-2.461,1.232c-1.228,0-2.455,0-2.455,0c-3.688-2.46-6.148-4.916-7.377-8.608c-1.232-3.688,0-7.377,1.229-11.061
	c2.46-3.692,4.916-6.148,8.604-7.381c3.688-1.228,7.381,0,11.064,1.232c3.693,2.456,6.148,4.916,7.377,8.604
	c1.232,3.688,1.232,7.376-1.229,11.064L68.848,238.506h265.555L254.491,99.584c0-1.228-1.228-2.46,0-2.46
	c0-1.228,1.228-1.228,1.228-2.46c1.229,0,2.456-1.229,2.456,0C259.402,94.664,260.631,95.896,260.631,97.124z"/>
<path fill="#F47D20" d="M343.007,46.718l1.228-4.916l1.228-4.921v-1.228v-1.228v-1.229l-1.228-6.148
	c0-1.228-1.228-3.688-2.456-6.147c-2.455-4.916-4.92-8.604-8.613-11.064c-1.228-1.229-3.684-2.461-6.139-3.688
	c-2.456-1.228-4.921-2.46-7.377-2.46h-1.236h-2.456h-2.456h-1.228c-2.456,0-4.92,0-8.613,1.232
	c-4.911,2.455-9.832,4.916-13.524,9.832c-3.684,4.92-6.14,9.836-6.14,14.752c0,2.46,0,4.921,0,7.376
	c0,2.461,1.229,4.921,2.456,7.377l30.733,51.639c0,1.228,1.228,1.228,0,2.46c0,1.228-1.229,1.228-2.456,2.456
	c-1.229,0-1.229,1.228-2.456,0c-1.228,0-1.228-1.229-2.456-1.229l-27.049-47.95l-2.456-3.684c-1.236-3.692-2.465-6.148-2.465-8.608
	c0-2.461,0-6.145,0-9.837c1.229-6.144,3.693-12.292,8.604-17.208c3.684-4.921,8.613-8.608,15.98-9.837
	c3.692-1.228,6.148-1.228,8.613-1.228h1.228h1.228h2.456h2.456c2.465,0,4.93,1.228,7.385,2.456c2.456,1.232,4.912,2.46,6.14,4.92
	c3.692,3.688,6.157,7.377,8.613,12.293c0,1.228,1.228,3.688,1.228,6.147v6.148v2.456v1.228v3.693l-1.228,3.684L343.007,46.718z"/>
<path fill="#F47D20" d="M317.186,97.124l55.326,95.896c1.228,1.228,1.228,2.455,0,3.688c-1.228,1.229-1.228,1.229-3.684,1.229
	H34.422c-1.229,0-2.456-1.229-3.688-2.461c-1.228-1.228-1.228-2.455,0-3.684l70.079-120.485c1.228-1.228,1.228-3.688,1.228-4.916
	c0-2.46-1.228-3.688-3.688-4.92c-1.229-1.229-3.688-1.229-4.916-1.229c-2.461,0-3.688,1.229-4.921,3.688
	c-1.228,1.228-1.228,3.688-1.228,6.148c0,2.456,1.228,3.688,3.688,4.916c1.229,0,1.229,1.232,2.461,2.46c0,1.229,0,2.456,0,2.456
	c0,1.232-1.232,1.232-2.461,1.232c-1.228,0-2.46,0-2.46,0c-3.688-2.46-6.144-4.916-7.376-8.608c-1.228-3.688,0-7.377,1.232-11.064
	c2.456-3.688,4.916-6.145,8.604-7.377c3.688-1.228,7.377-1.228,11.064,1.232c3.688,2.456,6.148,4.916,7.377,8.604
	c1.232,3.688,0,7.376-1.229,11.064L41.798,189.332h320.873l-52.862-90.976c0-1.232,0-2.46,0-2.46c0-1.232,1.237-1.232,2.465-2.461
	c1.228,0,1.228-1.228,2.456,0C315.957,94.664,315.957,95.896,317.186,97.124z"/>
<path fill="#D42F2F" d="M370.056,0h2.456h3.684h1.237c2.455,0,4.92,1.232,7.376,2.46c2.456,1.232,4.911,2.461,6.14,4.916
	c3.692,3.688,6.157,7.377,8.613,12.297c1.228,2.456,1.228,3.688,1.228,6.148v2.456v3.688v1.232v1.229v1.228v7.376v1.229v1.232
	l-2.456,6.144l1.229-2.456c0,0,0,0,0-1.228v-1.232l1.228-2.46l1.228-4.916v-1.229v-6.148v-2.46c0-2.456-1.228-3.684-2.455-6.144
	c-1.229-3.688-4.921-8.608-8.613-11.064c-2.456-1.232-3.684-2.46-6.14-3.688c-2.456-1.232-4.921-2.46-7.376-2.46h-2.465h-1.229
	h-2.455h-1.229c-2.455,0-4.92,0-8.613,1.228c-6.139,2.461-9.832,4.921-13.524,9.837c-3.684,4.916-6.14,9.836-6.14,14.752
	c0,2.461,0,4.916,0,7.377c0,2.46,1.229,4.916,2.456,7.376l1.228,1.232l29.506,50.406c0,1.228,1.228,1.228,0,2.456
	c0,1.228-1.229,1.232-1.229,2.46c-1.228,0-2.455,1.228-2.455,0c-1.229,0-1.229-1.228-2.456-1.228l-29.505-50.411l-1.229-3.684
	c-1.236-2.46-1.236-6.148-2.465-8.608c0-3.688,0-6.145,0-9.837c1.229-6.144,3.693-12.292,7.377-17.208
	c3.684-4.921,9.841-8.604,15.98-9.837c3.692-1.228,6.148-1.228,8.613-1.228L370.056,0z"/>
<path fill="#D42F2F" d="M372.512,97.124l28.277,47.946c1.228,1.231,1.228,2.46,0,3.692c-1.228,1.228-1.228,1.228-3.684,1.228H7.377
	c-1.229,0-2.461,0-3.688-1.228c-1.228-1.232-1.228-2.461,0-3.692L45.49,72.535c1.229-1.229,1.229-3.688,1.229-4.916
	c0-2.461-1.229-3.688-3.688-4.916c-1.228-1.229-3.688-1.229-4.916-1.229c-2.46,0-3.688,1.229-4.921,3.684
	c-1.228,1.232-1.228,3.688-1.228,4.921c0,2.456,1.228,3.688,3.688,4.916c1.232,0,1.232,1.232,1.232,2.46c0,1.229,0,2.456,0,2.456
	c0,1.232-1.232,1.232-2.461,1.232c-1.232,0-2.46,0-2.46,0c-3.688-2.46-6.148-4.916-7.376-8.608c-1.229-3.688,0-7.377,1.228-11.061
	c2.46-3.692,4.921-6.148,8.608-7.381c3.688-1.228,7.377-1.228,11.064,1.232c3.688,2.456,6.148,4.916,7.377,8.604
	c1.228,3.688,0,7.376-1.229,11.064l-38.113,66.391h377.432l-24.585-43.029c0-1.232-1.236-2.46,0-2.46
	c0-1.232,1.229-1.232,1.229-2.461c1.228,0,2.455-1.228,2.455,0C371.284,94.664,372.512,95.896,372.512,97.124z"/>
</svg>
