<svg width="908" height="330" viewBox="0 0 908 330" fill="none" xmlns="http://www.w3.org/2000/svg">
<path d="M66.127 324.51V318.469H67.252V324.51C67.252 325.072 67.1367 325.547 66.9062 325.934C66.6758 326.32 66.3574 326.615 65.9512 326.818C65.5488 327.018 65.0859 327.117 64.5625 327.117C64.0391 327.117 63.5742 327.027 63.168 326.848C62.7617 326.668 62.4434 326.395 62.2129 326.027C61.9824 325.66 61.8672 325.197 61.8672 324.639H62.998C62.998 324.998 63.0645 325.293 63.1973 325.523C63.3301 325.754 63.5137 325.924 63.748 326.033C63.9863 326.143 64.2578 326.197 64.5625 326.197C64.8594 326.197 65.125 326.135 65.3594 326.01C65.5977 325.881 65.7852 325.691 65.9219 325.441C66.0586 325.188 66.127 324.877 66.127 324.51ZM72.1973 319.225L69.373 327H68.2188L71.4707 318.469H72.2148L72.1973 319.225ZM74.5645 327L71.7344 319.225L71.7168 318.469H72.4609L75.7246 327H74.5645ZM74.418 323.842V324.768H69.625V323.842H74.418ZM83.4297 318.469V327H82.293L77.998 320.42V327H76.8672V318.469H77.998L82.3105 325.066V318.469H83.4297Z" fill="#49545A"/>
<path d="M138.656 318.469V327H137.525V318.469H138.656ZM142.23 322.307V323.232H138.41V322.307H142.23ZM142.811 318.469V319.395H138.41V318.469H142.811ZM149.578 326.08V327H145.061V326.08H149.578ZM145.289 318.469V327H144.158V318.469H145.289ZM148.98 322.137V323.057H145.061V322.137H148.98ZM149.52 318.469V319.395H145.061V318.469H149.52ZM154.02 323.01H151.857L151.846 322.102H153.809C154.133 322.102 154.416 322.047 154.658 321.938C154.9 321.828 155.088 321.672 155.221 321.469C155.357 321.262 155.426 321.016 155.426 320.73C155.426 320.418 155.365 320.164 155.244 319.969C155.127 319.77 154.945 319.625 154.699 319.535C154.457 319.441 154.148 319.395 153.773 319.395H152.109V327H150.979V318.469H153.773C154.211 318.469 154.602 318.514 154.945 318.604C155.289 318.689 155.58 318.826 155.818 319.014C156.061 319.197 156.244 319.432 156.369 319.717C156.494 320.002 156.557 320.344 156.557 320.742C156.557 321.094 156.467 321.412 156.287 321.697C156.107 321.979 155.857 322.209 155.537 322.389C155.221 322.568 154.85 322.684 154.424 322.734L154.02 323.01ZM153.967 327H151.412L152.051 326.08H153.967C154.326 326.08 154.631 326.018 154.881 325.893C155.135 325.768 155.328 325.592 155.461 325.365C155.594 325.135 155.66 324.863 155.66 324.551C155.66 324.234 155.604 323.961 155.49 323.73C155.377 323.5 155.199 323.322 154.957 323.197C154.715 323.072 154.402 323.01 154.02 323.01H152.408L152.42 322.102H154.623L154.863 322.43C155.273 322.465 155.621 322.582 155.906 322.781C156.191 322.977 156.408 323.227 156.557 323.531C156.709 323.836 156.785 324.172 156.785 324.539C156.785 325.07 156.668 325.52 156.434 325.887C156.203 326.25 155.877 326.527 155.455 326.719C155.033 326.906 154.537 327 153.967 327Z" fill="#49545A"/>
<path d="M209.445 318.469H210.541L213.336 325.424L216.125 318.469H217.227L213.758 327H212.902L209.445 318.469ZM209.088 318.469H210.055L210.213 323.672V327H209.088V318.469ZM216.611 318.469H217.578V327H216.453V323.672L216.611 318.469ZM222.828 319.225L220.004 327H218.85L222.102 318.469H222.846L222.828 319.225ZM225.195 327L222.365 319.225L222.348 318.469H223.092L226.355 327H225.195ZM225.049 323.842V324.768H220.256V323.842H225.049ZM227.498 318.469H230.322C230.963 318.469 231.504 318.566 231.945 318.762C232.391 318.957 232.729 319.246 232.959 319.629C233.193 320.008 233.311 320.475 233.311 321.029C233.311 321.42 233.23 321.777 233.07 322.102C232.914 322.422 232.688 322.695 232.391 322.922C232.098 323.145 231.746 323.311 231.336 323.42L231.02 323.543H228.365L228.354 322.623H230.357C230.764 322.623 231.102 322.553 231.371 322.412C231.641 322.268 231.844 322.074 231.98 321.832C232.117 321.59 232.186 321.322 232.186 321.029C232.186 320.701 232.121 320.414 231.992 320.168C231.863 319.922 231.66 319.732 231.383 319.6C231.109 319.463 230.756 319.395 230.322 319.395H228.629V327H227.498V318.469ZM232.484 327L230.41 323.133L231.588 323.127L233.691 326.93V327H232.484Z" fill="#49545A"/>
<path d="M287.752 319.225L284.928 327H283.773L287.025 318.469H287.77L287.752 319.225ZM290.119 327L287.289 319.225L287.271 318.469H288.016L291.279 327H290.119ZM289.973 323.842V324.768H285.18V323.842H289.973ZM295.568 323.654H293.289V322.734H295.568C296.01 322.734 296.367 322.664 296.641 322.523C296.914 322.383 297.113 322.188 297.238 321.938C297.367 321.688 297.432 321.402 297.432 321.082C297.432 320.789 297.367 320.514 297.238 320.256C297.113 319.998 296.914 319.791 296.641 319.635C296.367 319.475 296.01 319.395 295.568 319.395H293.553V327H292.422V318.469H295.568C296.213 318.469 296.758 318.58 297.203 318.803C297.648 319.025 297.986 319.334 298.217 319.729C298.447 320.119 298.562 320.566 298.562 321.07C298.562 321.617 298.447 322.084 298.217 322.471C297.986 322.857 297.648 323.152 297.203 323.355C296.758 323.555 296.213 323.654 295.568 323.654ZM299.992 318.469H302.816C303.457 318.469 303.998 318.566 304.439 318.762C304.885 318.957 305.223 319.246 305.453 319.629C305.688 320.008 305.805 320.475 305.805 321.029C305.805 321.42 305.725 321.777 305.564 322.102C305.408 322.422 305.182 322.695 304.885 322.922C304.592 323.145 304.24 323.311 303.83 323.42L303.514 323.543H300.859L300.848 322.623H302.852C303.258 322.623 303.596 322.553 303.865 322.412C304.135 322.268 304.338 322.074 304.475 321.832C304.611 321.59 304.68 321.322 304.68 321.029C304.68 320.701 304.615 320.414 304.486 320.168C304.357 319.922 304.154 319.732 303.877 319.6C303.604 319.463 303.25 319.395 302.816 319.395H301.123V327H299.992V318.469ZM304.979 327L302.904 323.133L304.082 323.127L306.186 326.93V327H304.979Z" fill="#49545A"/>
<path d="M357.814 318.469H358.91L361.705 325.424L364.494 318.469H365.596L362.127 327H361.271L357.814 318.469ZM357.457 318.469H358.424L358.582 323.672V327H357.457V318.469ZM364.98 318.469H365.947V327H364.822V323.672L364.98 318.469ZM371.197 319.225L368.373 327H367.219L370.471 318.469H371.215L371.197 319.225ZM373.564 327L370.734 319.225L370.717 318.469H371.461L374.725 327H373.564ZM373.418 323.842V324.768H368.625V323.842H373.418ZM375.709 318.469L377.924 322.752L380.145 318.469H381.428L378.486 323.812V327H377.355V323.812L374.414 318.469H375.709Z" fill="#49545A"/>
<path d="M436.086 324.51V318.469H437.211V324.51C437.211 325.072 437.096 325.547 436.865 325.934C436.635 326.32 436.316 326.615 435.91 326.818C435.508 327.018 435.045 327.117 434.521 327.117C433.998 327.117 433.533 327.027 433.127 326.848C432.721 326.668 432.402 326.395 432.172 326.027C431.941 325.66 431.826 325.197 431.826 324.639H432.957C432.957 324.998 433.023 325.293 433.156 325.523C433.289 325.754 433.473 325.924 433.707 326.033C433.945 326.143 434.217 326.197 434.521 326.197C434.818 326.197 435.084 326.135 435.318 326.01C435.557 325.881 435.744 325.691 435.881 325.441C436.018 325.188 436.086 324.877 436.086 324.51ZM444.008 318.469H445.133V324.24C445.133 324.881 444.99 325.414 444.705 325.84C444.42 326.266 444.041 326.586 443.568 326.801C443.1 327.012 442.59 327.117 442.039 327.117C441.461 327.117 440.938 327.012 440.469 326.801C440.004 326.586 439.635 326.266 439.361 325.84C439.092 325.414 438.957 324.881 438.957 324.24V318.469H440.076V324.24C440.076 324.686 440.158 325.053 440.322 325.342C440.486 325.631 440.715 325.846 441.008 325.986C441.305 326.127 441.648 326.197 442.039 326.197C442.434 326.197 442.777 326.127 443.07 325.986C443.367 325.846 443.598 325.631 443.762 325.342C443.926 325.053 444.008 324.686 444.008 324.24V318.469ZM453.471 318.469V327H452.334L448.039 320.42V327H446.908V318.469H448.039L452.352 325.066V318.469H453.471Z" fill="#49545A"/>
<path d="M511.135 324.51V318.469H512.26V324.51C512.26 325.072 512.145 325.547 511.914 325.934C511.684 326.32 511.365 326.615 510.959 326.818C510.557 327.018 510.094 327.117 509.57 327.117C509.047 327.117 508.582 327.027 508.176 326.848C507.77 326.668 507.451 326.395 507.221 326.027C506.99 325.66 506.875 325.197 506.875 324.639H508.006C508.006 324.998 508.072 325.293 508.205 325.523C508.338 325.754 508.521 325.924 508.756 326.033C508.994 326.143 509.266 326.197 509.57 326.197C509.867 326.197 510.133 326.135 510.367 326.01C510.605 325.881 510.793 325.691 510.93 325.441C511.066 325.188 511.135 324.877 511.135 324.51ZM519.057 318.469H520.182V324.24C520.182 324.881 520.039 325.414 519.754 325.84C519.469 326.266 519.09 326.586 518.617 326.801C518.148 327.012 517.639 327.117 517.088 327.117C516.51 327.117 515.986 327.012 515.518 326.801C515.053 326.586 514.684 326.266 514.41 325.84C514.141 325.414 514.006 324.881 514.006 324.24V318.469H515.125V324.24C515.125 324.686 515.207 325.053 515.371 325.342C515.535 325.631 515.764 325.846 516.057 325.986C516.354 326.127 516.697 326.197 517.088 326.197C517.482 326.197 517.826 326.127 518.119 325.986C518.416 325.846 518.646 325.631 518.811 325.342C518.975 325.053 519.057 324.686 519.057 324.24V318.469ZM527.131 326.08V327H522.865V326.08H527.131ZM523.088 318.469V327H521.957V318.469H523.088Z" fill="#49545A"/>
<path d="M583.307 319.225L580.482 327H579.328L582.58 318.469H583.324L583.307 319.225ZM585.674 327L582.844 319.225L582.826 318.469H583.57L586.834 327H585.674ZM585.527 323.842V324.768H580.734V323.842H585.527ZM592.752 318.469H593.877V324.24C593.877 324.881 593.734 325.414 593.449 325.84C593.164 326.266 592.785 326.586 592.312 326.801C591.844 327.012 591.334 327.117 590.783 327.117C590.205 327.117 589.682 327.012 589.213 326.801C588.748 326.586 588.379 326.266 588.105 325.84C587.836 325.414 587.701 324.881 587.701 324.24V318.469H588.82V324.24C588.82 324.686 588.902 325.053 589.066 325.342C589.23 325.631 589.459 325.846 589.752 325.986C590.049 326.127 590.393 326.197 590.783 326.197C591.178 326.197 591.521 326.127 591.814 325.986C592.111 325.846 592.342 325.631 592.506 325.342C592.67 325.053 592.752 324.686 592.752 324.24V318.469ZM601.957 322.752V325.875C601.852 326.031 601.684 326.207 601.453 326.402C601.223 326.594 600.904 326.762 600.498 326.906C600.096 327.047 599.576 327.117 598.939 327.117C598.42 327.117 597.941 327.027 597.504 326.848C597.07 326.664 596.693 326.398 596.373 326.051C596.057 325.699 595.811 325.273 595.635 324.773C595.463 324.27 595.377 323.699 595.377 323.062V322.4C595.377 321.764 595.451 321.195 595.6 320.695C595.752 320.195 595.975 319.771 596.268 319.424C596.561 319.072 596.92 318.807 597.346 318.627C597.771 318.443 598.26 318.352 598.811 318.352C599.463 318.352 600.008 318.465 600.445 318.691C600.887 318.914 601.23 319.223 601.477 319.617C601.727 320.012 601.887 320.461 601.957 320.965H600.826C600.775 320.656 600.674 320.375 600.521 320.121C600.373 319.867 600.16 319.664 599.883 319.512C599.605 319.355 599.248 319.277 598.811 319.277C598.416 319.277 598.074 319.35 597.785 319.494C597.496 319.639 597.258 319.846 597.07 320.115C596.883 320.385 596.742 320.711 596.648 321.094C596.559 321.477 596.514 321.908 596.514 322.389V323.062C596.514 323.555 596.57 323.994 596.684 324.381C596.801 324.768 596.967 325.098 597.182 325.371C597.396 325.641 597.652 325.846 597.949 325.986C598.25 326.127 598.582 326.197 598.945 326.197C599.348 326.197 599.674 326.164 599.924 326.098C600.174 326.027 600.369 325.945 600.51 325.852C600.65 325.754 600.758 325.662 600.832 325.576V323.666H598.857V322.752H601.957Z" fill="#49545A"/>
<path d="M659.779 324.844C659.779 324.645 659.748 324.469 659.686 324.316C659.627 324.16 659.521 324.02 659.369 323.895C659.221 323.77 659.014 323.65 658.748 323.537C658.486 323.424 658.154 323.309 657.752 323.191C657.33 323.066 656.949 322.928 656.609 322.775C656.27 322.619 655.979 322.441 655.736 322.242C655.494 322.043 655.309 321.814 655.18 321.557C655.051 321.299 654.986 321.004 654.986 320.672C654.986 320.34 655.055 320.033 655.191 319.752C655.328 319.471 655.523 319.227 655.777 319.02C656.035 318.809 656.342 318.645 656.697 318.527C657.053 318.41 657.449 318.352 657.887 318.352C658.527 318.352 659.07 318.475 659.516 318.721C659.965 318.963 660.307 319.281 660.541 319.676C660.775 320.066 660.893 320.484 660.893 320.93H659.768C659.768 320.609 659.699 320.326 659.562 320.08C659.426 319.83 659.219 319.635 658.941 319.494C658.664 319.35 658.312 319.277 657.887 319.277C657.484 319.277 657.152 319.338 656.891 319.459C656.629 319.58 656.434 319.744 656.305 319.951C656.18 320.158 656.117 320.395 656.117 320.66C656.117 320.84 656.154 321.004 656.229 321.152C656.307 321.297 656.426 321.432 656.586 321.557C656.75 321.682 656.957 321.797 657.207 321.902C657.461 322.008 657.764 322.109 658.115 322.207C658.6 322.344 659.018 322.496 659.369 322.664C659.721 322.832 660.01 323.021 660.236 323.232C660.467 323.439 660.637 323.676 660.746 323.941C660.859 324.203 660.916 324.5 660.916 324.832C660.916 325.18 660.846 325.494 660.705 325.775C660.564 326.057 660.363 326.297 660.102 326.496C659.84 326.695 659.525 326.85 659.158 326.959C658.795 327.064 658.389 327.117 657.939 327.117C657.545 327.117 657.156 327.062 656.773 326.953C656.395 326.844 656.049 326.68 655.736 326.461C655.428 326.242 655.18 325.973 654.992 325.652C654.809 325.328 654.717 324.953 654.717 324.527H655.842C655.842 324.82 655.898 325.072 656.012 325.283C656.125 325.49 656.279 325.662 656.475 325.799C656.674 325.936 656.898 326.037 657.148 326.104C657.402 326.166 657.666 326.197 657.939 326.197C658.334 326.197 658.668 326.143 658.941 326.033C659.215 325.924 659.422 325.768 659.562 325.564C659.707 325.361 659.779 325.121 659.779 324.844ZM667.777 326.08V327H663.26V326.08H667.777ZM663.488 318.469V327H662.357V318.469H663.488ZM667.18 322.137V323.057H663.26V322.137H667.18ZM667.719 318.469V319.395H663.26V318.469H667.719ZM672.324 323.654H670.045V322.734H672.324C672.766 322.734 673.123 322.664 673.396 322.523C673.67 322.383 673.869 322.188 673.994 321.938C674.123 321.688 674.188 321.402 674.188 321.082C674.188 320.789 674.123 320.514 673.994 320.256C673.869 319.998 673.67 319.791 673.396 319.635C673.123 319.475 672.766 319.395 672.324 319.395H670.309V327H669.178V318.469H672.324C672.969 318.469 673.514 318.58 673.959 318.803C674.404 319.025 674.742 319.334 674.973 319.729C675.203 320.119 675.318 320.566 675.318 321.07C675.318 321.617 675.203 322.084 674.973 322.471C674.742 322.857 674.404 323.152 673.959 323.355C673.514 323.555 672.969 323.654 672.324 323.654Z" fill="#49545A"/>
<path d="M735.027 322.465V323.004C735.027 323.645 734.947 324.219 734.787 324.727C734.627 325.234 734.396 325.666 734.096 326.021C733.795 326.377 733.434 326.648 733.012 326.836C732.594 327.023 732.125 327.117 731.605 327.117C731.102 327.117 730.639 327.023 730.217 326.836C729.799 326.648 729.436 326.377 729.127 326.021C728.822 325.666 728.586 325.234 728.418 324.727C728.25 324.219 728.166 323.645 728.166 323.004V322.465C728.166 321.824 728.248 321.252 728.412 320.748C728.58 320.24 728.816 319.809 729.121 319.453C729.426 319.094 729.787 318.82 730.205 318.633C730.627 318.445 731.09 318.352 731.594 318.352C732.113 318.352 732.582 318.445 733 318.633C733.422 318.82 733.783 319.094 734.084 319.453C734.389 319.809 734.621 320.24 734.781 320.748C734.945 321.252 735.027 321.824 735.027 322.465ZM733.908 323.004V322.453C733.908 321.945 733.855 321.496 733.75 321.105C733.648 320.715 733.498 320.387 733.299 320.121C733.1 319.855 732.855 319.654 732.566 319.518C732.281 319.381 731.957 319.312 731.594 319.312C731.242 319.312 730.924 319.381 730.639 319.518C730.357 319.654 730.115 319.855 729.912 320.121C729.713 320.387 729.559 320.715 729.449 321.105C729.34 321.496 729.285 321.945 729.285 322.453V323.004C729.285 323.516 729.34 323.969 729.449 324.363C729.559 324.754 729.715 325.084 729.918 325.354C730.125 325.619 730.369 325.82 730.65 325.957C730.936 326.094 731.254 326.162 731.605 326.162C731.973 326.162 732.299 326.094 732.584 325.957C732.869 325.82 733.109 325.619 733.305 325.354C733.504 325.084 733.654 324.754 733.756 324.363C733.857 323.969 733.908 323.516 733.908 323.004ZM741.871 324.287H742.996C742.938 324.826 742.783 325.309 742.533 325.734C742.283 326.16 741.93 326.498 741.473 326.748C741.016 326.994 740.445 327.117 739.762 327.117C739.262 327.117 738.807 327.023 738.396 326.836C737.99 326.648 737.641 326.383 737.348 326.039C737.055 325.691 736.828 325.275 736.668 324.791C736.512 324.303 736.434 323.76 736.434 323.162V322.312C736.434 321.715 736.512 321.174 736.668 320.689C736.828 320.201 737.057 319.783 737.354 319.436C737.654 319.088 738.016 318.82 738.438 318.633C738.859 318.445 739.334 318.352 739.861 318.352C740.506 318.352 741.051 318.473 741.496 318.715C741.941 318.957 742.287 319.293 742.533 319.723C742.783 320.148 742.938 320.643 742.996 321.205H741.871C741.816 320.807 741.715 320.465 741.566 320.18C741.418 319.891 741.207 319.668 740.934 319.512C740.66 319.355 740.303 319.277 739.861 319.277C739.482 319.277 739.148 319.35 738.859 319.494C738.574 319.639 738.334 319.844 738.139 320.109C737.947 320.375 737.803 320.693 737.705 321.064C737.607 321.436 737.559 321.848 737.559 322.301V323.162C737.559 323.58 737.602 323.973 737.688 324.34C737.777 324.707 737.912 325.029 738.092 325.307C738.271 325.584 738.5 325.803 738.777 325.963C739.055 326.119 739.383 326.197 739.762 326.197C740.242 326.197 740.625 326.121 740.91 325.969C741.195 325.816 741.41 325.598 741.555 325.312C741.703 325.027 741.809 324.686 741.871 324.287ZM747.514 318.469V327H746.4V318.469H747.514ZM750.256 318.469V319.395H743.664V318.469H750.256Z" fill="#49545A"/>
<path d="M808.383 318.469V327H807.246L802.951 320.42V327H801.82V318.469H802.951L807.264 325.066V318.469H808.383ZM816.955 322.465V323.004C816.955 323.645 816.875 324.219 816.715 324.727C816.555 325.234 816.324 325.666 816.023 326.021C815.723 326.377 815.361 326.648 814.939 326.836C814.521 327.023 814.053 327.117 813.533 327.117C813.029 327.117 812.566 327.023 812.145 326.836C811.727 326.648 811.363 326.377 811.055 326.021C810.75 325.666 810.514 325.234 810.346 324.727C810.178 324.219 810.094 323.645 810.094 323.004V322.465C810.094 321.824 810.176 321.252 810.34 320.748C810.508 320.24 810.744 319.809 811.049 319.453C811.354 319.094 811.715 318.82 812.133 318.633C812.555 318.445 813.018 318.352 813.521 318.352C814.041 318.352 814.51 318.445 814.928 318.633C815.35 318.82 815.711 319.094 816.012 319.453C816.316 319.809 816.549 320.24 816.709 320.748C816.873 321.252 816.955 321.824 816.955 322.465ZM815.836 323.004V322.453C815.836 321.945 815.783 321.496 815.678 321.105C815.576 320.715 815.426 320.387 815.227 320.121C815.027 319.855 814.783 319.654 814.494 319.518C814.209 319.381 813.885 319.312 813.521 319.312C813.17 319.312 812.852 319.381 812.566 319.518C812.285 319.654 812.043 319.855 811.84 320.121C811.641 320.387 811.486 320.715 811.377 321.105C811.268 321.496 811.213 321.945 811.213 322.453V323.004C811.213 323.516 811.268 323.969 811.377 324.363C811.486 324.754 811.643 325.084 811.846 325.354C812.053 325.619 812.297 325.82 812.578 325.957C812.863 326.094 813.182 326.162 813.533 326.162C813.9 326.162 814.227 326.094 814.512 325.957C814.797 325.82 815.037 325.619 815.232 325.354C815.432 325.084 815.582 324.754 815.684 324.363C815.785 323.969 815.836 323.516 815.836 323.004ZM821.273 325.705L823.787 318.469H825.012L821.854 327H820.98L821.273 325.705ZM818.924 318.469L821.414 325.705L821.725 327H820.852L817.699 318.469H818.924Z" fill="#49545A"/>
<path d="M879.043 327H877.262L877.273 326.08H879.043C879.652 326.08 880.16 325.953 880.566 325.699C880.973 325.441 881.277 325.082 881.48 324.621C881.688 324.156 881.791 323.613 881.791 322.992V322.471C881.791 321.982 881.732 321.549 881.615 321.17C881.498 320.787 881.326 320.465 881.1 320.203C880.873 319.938 880.596 319.736 880.268 319.6C879.943 319.463 879.57 319.395 879.148 319.395H877.227V318.469H879.148C879.707 318.469 880.217 318.562 880.678 318.75C881.139 318.934 881.535 319.201 881.867 319.553C882.203 319.9 882.461 320.322 882.641 320.818C882.82 321.311 882.91 321.865 882.91 322.482V322.992C882.91 323.609 882.82 324.166 882.641 324.662C882.461 325.154 882.201 325.574 881.861 325.922C881.525 326.27 881.119 326.537 880.643 326.725C880.17 326.908 879.637 327 879.043 327ZM877.865 318.469V327H876.734V318.469H877.865ZM890.029 326.08V327H885.512V326.08H890.029ZM885.74 318.469V327H884.609V318.469H885.74ZM889.432 322.137V323.057H885.512V322.137H889.432ZM889.971 318.469V319.395H885.512V318.469H889.971ZM896.58 324.287H897.705C897.646 324.826 897.492 325.309 897.242 325.734C896.992 326.16 896.639 326.498 896.182 326.748C895.725 326.994 895.154 327.117 894.471 327.117C893.971 327.117 893.516 327.023 893.105 326.836C892.699 326.648 892.35 326.383 892.057 326.039C891.764 325.691 891.537 325.275 891.377 324.791C891.221 324.303 891.143 323.76 891.143 323.162V322.312C891.143 321.715 891.221 321.174 891.377 320.689C891.537 320.201 891.766 319.783 892.062 319.436C892.363 319.088 892.725 318.82 893.146 318.633C893.568 318.445 894.043 318.352 894.57 318.352C895.215 318.352 895.76 318.473 896.205 318.715C896.65 318.957 896.996 319.293 897.242 319.723C897.492 320.148 897.646 320.643 897.705 321.205H896.58C896.525 320.807 896.424 320.465 896.275 320.18C896.127 319.891 895.916 319.668 895.643 319.512C895.369 319.355 895.012 319.277 894.57 319.277C894.191 319.277 893.857 319.35 893.568 319.494C893.283 319.639 893.043 319.844 892.848 320.109C892.656 320.375 892.512 320.693 892.414 321.064C892.316 321.436 892.268 321.848 892.268 322.301V323.162C892.268 323.58 892.311 323.973 892.396 324.34C892.486 324.707 892.621 325.029 892.801 325.307C892.98 325.584 893.209 325.803 893.486 325.963C893.764 326.119 894.092 326.197 894.471 326.197C894.951 326.197 895.334 326.121 895.619 325.969C895.904 325.816 896.119 325.598 896.264 325.312C896.412 325.027 896.518 324.686 896.58 324.287Z" fill="#49545A"/>
<path d="M4.97828 2.42188V11H3.89429V3.77539L1.70874 4.57227V3.59375L4.80835 2.42188H4.97828ZM13.5212 6.05469V7.35547C13.5212 8.05469 13.4587 8.64453 13.3337 9.125C13.2087 9.60547 13.0291 9.99219 12.7947 10.2852C12.5603 10.5781 12.2771 10.791 11.9451 10.9238C11.6169 11.0527 11.2459 11.1172 10.8318 11.1172C10.5037 11.1172 10.2009 11.0762 9.92359 10.9941C9.64624 10.9121 9.39624 10.7812 9.17359 10.6016C8.95484 10.418 8.76734 10.1797 8.61109 9.88672C8.45484 9.59375 8.3357 9.23828 8.25367 8.82031C8.17163 8.40234 8.13062 7.91406 8.13062 7.35547V6.05469C8.13062 5.35547 8.19312 4.76953 8.31812 4.29688C8.44703 3.82422 8.62867 3.44531 8.86304 3.16016C9.09742 2.87109 9.37867 2.66406 9.70679 2.53906C10.0388 2.41406 10.4099 2.35156 10.8201 2.35156C11.1521 2.35156 11.4568 2.39258 11.7341 2.47461C12.0154 2.55273 12.2654 2.67969 12.4841 2.85547C12.7029 3.02734 12.8884 3.25781 13.0408 3.54688C13.197 3.83203 13.3162 4.18164 13.3982 4.5957C13.4802 5.00977 13.5212 5.49609 13.5212 6.05469ZM12.4314 7.53125V5.87305C12.4314 5.49023 12.408 5.1543 12.3611 4.86523C12.3181 4.57227 12.2537 4.32227 12.1677 4.11523C12.0818 3.9082 11.9724 3.74023 11.8396 3.61133C11.7107 3.48242 11.5603 3.38867 11.3884 3.33008C11.2205 3.26758 11.031 3.23633 10.8201 3.23633C10.5623 3.23633 10.3337 3.28516 10.1345 3.38281C9.93531 3.47656 9.76734 3.62695 9.63062 3.83398C9.49781 4.04102 9.39624 4.3125 9.32593 4.64844C9.25562 4.98438 9.22046 5.39258 9.22046 5.87305V7.53125C9.22046 7.91406 9.24195 8.25195 9.28492 8.54492C9.33179 8.83789 9.40015 9.0918 9.48999 9.30664C9.57984 9.51758 9.68921 9.69141 9.81812 9.82812C9.94703 9.96484 10.0955 10.0664 10.2634 10.1328C10.4353 10.1953 10.6248 10.2266 10.8318 10.2266C11.0974 10.2266 11.3298 10.1758 11.5291 10.0742C11.7283 9.97266 11.8943 9.81445 12.0271 9.59961C12.1638 9.38086 12.2654 9.10156 12.3318 8.76172C12.3982 8.41797 12.4314 8.00781 12.4314 7.53125ZM20.2712 6.05469V7.35547C20.2712 8.05469 20.2087 8.64453 20.0837 9.125C19.9587 9.60547 19.7791 9.99219 19.5447 10.2852C19.3103 10.5781 19.0271 10.791 18.6951 10.9238C18.3669 11.0527 17.9959 11.1172 17.5818 11.1172C17.2537 11.1172 16.9509 11.0762 16.6736 10.9941C16.3962 10.9121 16.1462 10.7812 15.9236 10.6016C15.7048 10.418 15.5173 10.1797 15.3611 9.88672C15.2048 9.59375 15.0857 9.23828 15.0037 8.82031C14.9216 8.40234 14.8806 7.91406 14.8806 7.35547V6.05469C14.8806 5.35547 14.9431 4.76953 15.0681 4.29688C15.197 3.82422 15.3787 3.44531 15.613 3.16016C15.8474 2.87109 16.1287 2.66406 16.4568 2.53906C16.7888 2.41406 17.1599 2.35156 17.5701 2.35156C17.9021 2.35156 18.2068 2.39258 18.4841 2.47461C18.7654 2.55273 19.0154 2.67969 19.2341 2.85547C19.4529 3.02734 19.6384 3.25781 19.7908 3.54688C19.947 3.83203 20.0662 4.18164 20.1482 4.5957C20.2302 5.00977 20.2712 5.49609 20.2712 6.05469ZM19.1814 7.53125V5.87305C19.1814 5.49023 19.158 5.1543 19.1111 4.86523C19.0681 4.57227 19.0037 4.32227 18.9177 4.11523C18.8318 3.9082 18.7224 3.74023 18.5896 3.61133C18.4607 3.48242 18.3103 3.38867 18.1384 3.33008C17.9705 3.26758 17.781 3.23633 17.5701 3.23633C17.3123 3.23633 17.0837 3.28516 16.8845 3.38281C16.6853 3.47656 16.5173 3.62695 16.3806 3.83398C16.2478 4.04102 16.1462 4.3125 16.0759 4.64844C16.0056 4.98438 15.9705 5.39258 15.9705 5.87305V7.53125C15.9705 7.91406 15.9919 8.25195 16.0349 8.54492C16.0818 8.83789 16.1502 9.0918 16.24 9.30664C16.3298 9.51758 16.4392 9.69141 16.5681 9.82812C16.697 9.96484 16.8455 10.0664 17.0134 10.1328C17.1853 10.1953 17.3748 10.2266 17.5818 10.2266C17.8474 10.2266 18.0798 10.1758 18.2791 10.0742C18.4783 9.97266 18.6443 9.81445 18.7771 9.59961C18.9138 9.38086 19.0154 9.10156 19.0818 8.76172C19.1482 8.41797 19.1814 8.00781 19.1814 7.53125Z" fill="#49545A"/>
<path d="M9.24414 41.0918H9.35547C9.98047 41.0918 10.4883 41.0039 10.8789 40.8281C11.2695 40.6523 11.5703 40.416 11.7813 40.1191C11.9922 39.8223 12.1367 39.4883 12.2148 39.1172C12.293 38.7422 12.332 38.3574 12.332 37.9629V36.6562C12.332 36.2695 12.2871 35.9258 12.1973 35.625C12.1113 35.3242 11.9902 35.0723 11.834 34.8691C11.6816 34.666 11.5078 34.5117 11.3125 34.4062C11.1172 34.3008 10.9102 34.248 10.6914 34.248C10.4414 34.248 10.2168 34.2988 10.0176 34.4004C9.82227 34.498 9.65625 34.6367 9.51953 34.8164C9.38672 34.9961 9.28516 35.207 9.21485 35.4492C9.14453 35.6914 9.10938 35.9551 9.10938 36.2402C9.10938 36.4941 9.14063 36.7402 9.20313 36.9785C9.26563 37.2168 9.36133 37.4316 9.49024 37.623C9.61914 37.8145 9.7793 37.9668 9.97071 38.0801C10.166 38.1895 10.3945 38.2441 10.6563 38.2441C10.8984 38.2441 11.125 38.1973 11.3359 38.1035C11.5508 38.0059 11.7402 37.875 11.9043 37.7109C12.0723 37.543 12.2051 37.3535 12.3027 37.1426C12.4043 36.9316 12.4629 36.7109 12.4785 36.4805H12.9941C12.9941 36.8047 12.9297 37.125 12.8008 37.4414C12.6758 37.7539 12.5 38.0391 12.2734 38.2969C12.0469 38.5547 11.7813 38.7617 11.4766 38.918C11.1719 39.0703 10.8398 39.1465 10.4805 39.1465C10.0586 39.1465 9.69336 39.0645 9.38477 38.9004C9.07617 38.7363 8.82227 38.5176 8.62305 38.2441C8.42774 37.9707 8.28125 37.666 8.1836 37.3301C8.08985 36.9902 8.04297 36.6465 8.04297 36.2988C8.04297 35.8926 8.09961 35.5117 8.21289 35.1562C8.32617 34.8008 8.49414 34.4883 8.7168 34.2188C8.93946 33.9453 9.21485 33.7324 9.54297 33.5801C9.875 33.4277 10.2578 33.3516 10.6914 33.3516C11.1797 33.3516 11.5957 33.4492 11.9395 33.6445C12.2832 33.8398 12.5625 34.1016 12.7773 34.4297C12.9961 34.7578 13.1563 35.127 13.2578 35.5371C13.3594 35.9473 13.4102 36.3691 13.4102 36.8027V37.1953C13.4102 37.6367 13.3809 38.0859 13.3223 38.543C13.2676 38.9961 13.1602 39.4297 13 39.8438C12.8438 40.2578 12.6152 40.6289 12.3145 40.957C12.0137 41.2812 11.6211 41.5391 11.1367 41.7305C10.6563 41.918 10.0625 42.0117 9.35547 42.0117H9.24414V41.0918ZM20.2715 37.0547V38.3555C20.2715 39.0547 20.209 39.6445 20.084 40.125C19.959 40.6055 19.7793 40.9922 19.5449 41.2852C19.3105 41.5781 19.0273 41.791 18.6953 41.9238C18.3672 42.0527 17.9961 42.1172 17.582 42.1172C17.2539 42.1172 16.9512 42.0762 16.6738 41.9941C16.3965 41.9121 16.1465 41.7812 15.9238 41.6016C15.7051 41.418 15.5176 41.1797 15.3613 40.8867C15.2051 40.5938 15.0859 40.2383 15.0039 39.8203C14.9219 39.4023 14.8809 38.9141 14.8809 38.3555V37.0547C14.8809 36.3555 14.9434 35.7695 15.0684 35.2969C15.1973 34.8242 15.3789 34.4453 15.6133 34.1602C15.8477 33.8711 16.1289 33.6641 16.457 33.5391C16.7891 33.4141 17.1602 33.3516 17.5703 33.3516C17.9023 33.3516 18.207 33.3926 18.4844 33.4746C18.7656 33.5527 19.0156 33.6797 19.2344 33.8555C19.4531 34.0273 19.6387 34.2578 19.791 34.5469C19.9473 34.832 20.0664 35.1816 20.1484 35.5957C20.2305 36.0098 20.2715 36.4961 20.2715 37.0547ZM19.1816 38.5312V36.873C19.1816 36.4902 19.1582 36.1543 19.1113 35.8652C19.0684 35.5723 19.0039 35.3223 18.918 35.1152C18.832 34.9082 18.7227 34.7402 18.5898 34.6113C18.4609 34.4824 18.3105 34.3887 18.1387 34.3301C17.9707 34.2676 17.7813 34.2363 17.5703 34.2363C17.3125 34.2363 17.084 34.2852 16.8848 34.3828C16.6855 34.4766 16.5176 34.627 16.3809 34.834C16.248 35.041 16.1465 35.3125 16.0762 35.6484C16.0059 35.9844 15.9707 36.3926 15.9707 36.873V38.5312C15.9707 38.9141 15.9922 39.252 16.0352 39.5449C16.082 39.8379 16.1504 40.0918 16.2402 40.3066C16.3301 40.5176 16.4395 40.6914 16.5684 40.8281C16.6973 40.9648 16.8457 41.0664 17.0137 41.1328C17.1855 41.1953 17.375 41.2266 17.582 41.2266C17.8477 41.2266 18.0801 41.1758 18.2793 41.0742C18.4785 40.9727 18.6445 40.8145 18.7773 40.5996C18.9141 40.3809 19.0156 40.1016 19.082 39.7617C19.1484 39.418 19.1816 39.0078 19.1816 38.5312Z" fill="#49545A"/>
<path d="M13.5449 70.6914C13.5449 71.2109 13.4238 71.6523 13.1816 72.0156C12.9434 72.375 12.6191 72.6484 12.209 72.8359C11.8027 73.0234 11.3438 73.1172 10.832 73.1172C10.3203 73.1172 9.85938 73.0234 9.44922 72.8359C9.03906 72.6484 8.71485 72.375 8.47656 72.0156C8.23828 71.6523 8.11914 71.2109 8.11914 70.6914C8.11914 70.3516 8.1836 70.041 8.3125 69.7598C8.44531 69.4746 8.63086 69.2266 8.86914 69.0156C9.11133 68.8047 9.39649 68.6426 9.72461 68.5293C10.0566 68.4121 10.4219 68.3535 10.8203 68.3535C11.3438 68.3535 11.8105 68.4551 12.2207 68.6582C12.6309 68.8574 12.9531 69.1328 13.1875 69.4844C13.4258 69.8359 13.5449 70.2383 13.5449 70.6914ZM12.4551 70.668C12.4551 70.3516 12.3867 70.0723 12.25 69.8301C12.1133 69.584 11.9219 69.3926 11.6758 69.2559C11.4297 69.1191 11.1445 69.0508 10.8203 69.0508C10.4883 69.0508 10.2012 69.1191 9.95899 69.2559C9.72071 69.3926 9.53516 69.584 9.40235 69.8301C9.26953 70.0723 9.20313 70.3516 9.20313 70.668C9.20313 70.9961 9.26758 71.2773 9.39649 71.5117C9.5293 71.7422 9.7168 71.9199 9.95899 72.0449C10.2051 72.166 10.4961 72.2266 10.832 72.2266C11.168 72.2266 11.457 72.166 11.6992 72.0449C11.9414 71.9199 12.127 71.7422 12.2559 71.5117C12.3887 71.2773 12.4551 70.9961 12.4551 70.668ZM13.3457 66.6895C13.3457 67.1035 13.2363 67.4766 13.0176 67.8086C12.7988 68.1406 12.5 68.4023 12.1211 68.5938C11.7422 68.7852 11.3125 68.8809 10.832 68.8809C10.3438 68.8809 9.90821 68.7852 9.52539 68.5938C9.14649 68.4023 8.84961 68.1406 8.63477 67.8086C8.41992 67.4766 8.3125 67.1035 8.3125 66.6895C8.3125 66.1934 8.41992 65.7715 8.63477 65.4238C8.85352 65.0762 9.15235 64.8105 9.53125 64.627C9.91016 64.4434 10.3418 64.3516 10.8262 64.3516C11.3145 64.3516 11.748 64.4434 12.127 64.627C12.5059 64.8105 12.8027 65.0762 13.0176 65.4238C13.2363 65.7715 13.3457 66.1934 13.3457 66.6895ZM12.2617 66.707C12.2617 66.4219 12.2012 66.1699 12.0801 65.9512C11.959 65.7324 11.791 65.5605 11.5762 65.4355C11.3613 65.3066 11.1113 65.2422 10.8262 65.2422C10.541 65.2422 10.291 65.3027 10.0762 65.4238C9.86524 65.541 9.69922 65.709 9.57813 65.9277C9.46094 66.1465 9.40235 66.4062 9.40235 66.707C9.40235 67 9.46094 67.2559 9.57813 67.4746C9.69922 67.6934 9.86719 67.8633 10.082 67.9844C10.2969 68.1055 10.5469 68.166 10.832 68.166C11.1172 68.166 11.3652 68.1055 11.5762 67.9844C11.791 67.8633 11.959 67.6934 12.0801 67.4746C12.2012 67.2559 12.2617 67 12.2617 66.707ZM20.2715 68.0547V69.3555C20.2715 70.0547 20.209 70.6445 20.084 71.125C19.959 71.6055 19.7793 71.9922 19.5449 72.2852C19.3105 72.5781 19.0273 72.791 18.6953 72.9238C18.3672 73.0527 17.9961 73.1172 17.582 73.1172C17.2539 73.1172 16.9512 73.0762 16.6738 72.9941C16.3965 72.9121 16.1465 72.7812 15.9238 72.6016C15.7051 72.418 15.5176 72.1797 15.3613 71.8867C15.2051 71.5938 15.0859 71.2383 15.0039 70.8203C14.9219 70.4023 14.8809 69.9141 14.8809 69.3555V68.0547C14.8809 67.3555 14.9434 66.7695 15.0684 66.2969C15.1973 65.8242 15.3789 65.4453 15.6133 65.1602C15.8477 64.8711 16.1289 64.6641 16.457 64.5391C16.7891 64.4141 17.1602 64.3516 17.5703 64.3516C17.9023 64.3516 18.207 64.3926 18.4844 64.4746C18.7656 64.5527 19.0156 64.6797 19.2344 64.8555C19.4531 65.0273 19.6387 65.2578 19.791 65.5469C19.9473 65.832 20.0664 66.1816 20.1484 66.5957C20.2305 67.0098 20.2715 67.4961 20.2715 68.0547ZM19.1816 69.5312V67.873C19.1816 67.4902 19.1582 67.1543 19.1113 66.8652C19.0684 66.5723 19.0039 66.3223 18.918 66.1152C18.832 65.9082 18.7227 65.7402 18.5898 65.6113C18.4609 65.4824 18.3105 65.3887 18.1387 65.3301C17.9707 65.2676 17.7813 65.2363 17.5703 65.2363C17.3125 65.2363 17.084 65.2852 16.8848 65.3828C16.6855 65.4766 16.5176 65.627 16.3809 65.834C16.248 66.041 16.1465 66.3125 16.0762 66.6484C16.0059 66.9844 15.9707 67.3926 15.9707 67.873V69.5312C15.9707 69.9141 15.9922 70.252 16.0352 70.5449C16.082 70.8379 16.1504 71.0918 16.2402 71.3066C16.3301 71.5176 16.4395 71.6914 16.5684 71.8281C16.6973 71.9648 16.8457 72.0664 17.0137 72.1328C17.1855 72.1953 17.375 72.2266 17.582 72.2266C17.8477 72.2266 18.0801 72.1758 18.2793 72.0742C18.4785 71.9727 18.6445 71.8145 18.7773 71.5996C18.9141 71.3809 19.0156 71.1016 19.082 70.7617C19.1484 70.418 19.1816 70.0078 19.1816 69.5312Z" fill="#49545A"/>
<path d="M13.6797 95.4688V96.0781L10.1465 104H9.00391L12.5313 96.3594H7.91406V95.4688H13.6797ZM20.2715 99.0547V100.355C20.2715 101.055 20.209 101.645 20.084 102.125C19.959 102.605 19.7793 102.992 19.5449 103.285C19.3105 103.578 19.0273 103.791 18.6953 103.924C18.3672 104.053 17.9961 104.117 17.582 104.117C17.2539 104.117 16.9512 104.076 16.6738 103.994C16.3965 103.912 16.1465 103.781 15.9238 103.602C15.7051 103.418 15.5176 103.18 15.3613 102.887C15.2051 102.594 15.0859 102.238 15.0039 101.82C14.9219 101.402 14.8809 100.914 14.8809 100.355V99.0547C14.8809 98.3555 14.9434 97.7695 15.0684 97.2969C15.1973 96.8242 15.3789 96.4453 15.6133 96.1602C15.8477 95.8711 16.1289 95.6641 16.457 95.5391C16.7891 95.4141 17.1602 95.3516 17.5703 95.3516C17.9023 95.3516 18.207 95.3926 18.4844 95.4746C18.7656 95.5527 19.0156 95.6797 19.2344 95.8555C19.4531 96.0273 19.6387 96.2578 19.791 96.5469C19.9473 96.832 20.0664 97.1816 20.1484 97.5957C20.2305 98.0098 20.2715 98.4961 20.2715 99.0547ZM19.1816 100.531V98.873C19.1816 98.4902 19.1582 98.1543 19.1113 97.8652C19.0684 97.5723 19.0039 97.3223 18.918 97.1152C18.832 96.9082 18.7227 96.7402 18.5898 96.6113C18.4609 96.4824 18.3105 96.3887 18.1387 96.3301C17.9707 96.2676 17.7813 96.2363 17.5703 96.2363C17.3125 96.2363 17.084 96.2852 16.8848 96.3828C16.6855 96.4766 16.5176 96.627 16.3809 96.834C16.248 97.041 16.1465 97.3125 16.0762 97.6484C16.0059 97.9844 15.9707 98.3926 15.9707 98.873V100.531C15.9707 100.914 15.9922 101.252 16.0352 101.545C16.082 101.838 16.1504 102.092 16.2402 102.307C16.3301 102.518 16.4395 102.691 16.5684 102.828C16.6973 102.965 16.8457 103.066 17.0137 103.133C17.1855 103.195 17.375 103.227 17.582 103.227C17.8477 103.227 18.0801 103.176 18.2793 103.074C18.4785 102.973 18.6445 102.814 18.7773 102.6C18.9141 102.381 19.0156 102.102 19.082 101.762C19.1484 101.418 19.1816 101.008 19.1816 100.531Z" fill="#49545A"/>
<path d="M12.3262 126.457H12.4199V127.377H12.3262C11.752 127.377 11.2715 127.471 10.8848 127.658C10.498 127.842 10.1914 128.09 9.96485 128.402C9.73828 128.711 9.57422 129.059 9.47266 129.445C9.375 129.832 9.32617 130.225 9.32617 130.623V131.877C9.32617 132.256 9.3711 132.592 9.46094 132.885C9.55078 133.174 9.67383 133.418 9.83008 133.617C9.98633 133.816 10.1621 133.967 10.3574 134.068C10.5566 134.17 10.7637 134.221 10.9785 134.221C11.2285 134.221 11.4512 134.174 11.6465 134.08C11.8418 133.982 12.0059 133.848 12.1387 133.676C12.2754 133.5 12.3789 133.293 12.4492 133.055C12.5195 132.816 12.5547 132.555 12.5547 132.27C12.5547 132.016 12.5234 131.771 12.4609 131.537C12.3984 131.299 12.3027 131.088 12.1738 130.904C12.0449 130.717 11.8828 130.57 11.6875 130.465C11.4961 130.355 11.2676 130.301 11.002 130.301C10.7012 130.301 10.4199 130.375 10.1582 130.523C9.90039 130.668 9.6875 130.859 9.51953 131.098C9.35547 131.332 9.26172 131.588 9.23828 131.865L8.66406 131.859C8.71875 131.422 8.82031 131.049 8.96875 130.74C9.1211 130.428 9.3086 130.174 9.53125 129.979C9.75781 129.779 10.0098 129.635 10.2871 129.545C10.5684 129.451 10.8652 129.404 11.1777 129.404C11.6035 129.404 11.9707 129.484 12.2793 129.645C12.5879 129.805 12.8418 130.02 13.041 130.289C13.2402 130.555 13.3867 130.855 13.4805 131.191C13.5781 131.523 13.627 131.865 13.627 132.217C13.627 132.619 13.5703 132.996 13.457 133.348C13.3438 133.699 13.1738 134.008 12.9473 134.273C12.7246 134.539 12.4492 134.746 12.1211 134.895C11.793 135.043 11.4121 135.117 10.9785 135.117C10.5176 135.117 10.1152 135.023 9.77149 134.836C9.42774 134.645 9.14258 134.391 8.91602 134.074C8.68946 133.758 8.51953 133.406 8.40625 133.02C8.29297 132.633 8.23633 132.24 8.23633 131.842V131.332C8.23633 130.73 8.29688 130.141 8.41797 129.562C8.53906 128.984 8.74805 128.461 9.04492 127.992C9.34571 127.523 9.76172 127.15 10.293 126.873C10.8242 126.596 11.502 126.457 12.3262 126.457ZM20.2715 130.055V131.355C20.2715 132.055 20.209 132.645 20.084 133.125C19.959 133.605 19.7793 133.992 19.5449 134.285C19.3105 134.578 19.0273 134.791 18.6953 134.924C18.3672 135.053 17.9961 135.117 17.582 135.117C17.2539 135.117 16.9512 135.076 16.6738 134.994C16.3965 134.912 16.1465 134.781 15.9238 134.602C15.7051 134.418 15.5176 134.18 15.3613 133.887C15.2051 133.594 15.0859 133.238 15.0039 132.82C14.9219 132.402 14.8809 131.914 14.8809 131.355V130.055C14.8809 129.355 14.9434 128.77 15.0684 128.297C15.1973 127.824 15.3789 127.445 15.6133 127.16C15.8477 126.871 16.1289 126.664 16.457 126.539C16.7891 126.414 17.1602 126.352 17.5703 126.352C17.9023 126.352 18.207 126.393 18.4844 126.475C18.7656 126.553 19.0156 126.68 19.2344 126.855C19.4531 127.027 19.6387 127.258 19.791 127.547C19.9473 127.832 20.0664 128.182 20.1484 128.596C20.2305 129.01 20.2715 129.496 20.2715 130.055ZM19.1816 131.531V129.873C19.1816 129.49 19.1582 129.154 19.1113 128.865C19.0684 128.572 19.0039 128.322 18.918 128.115C18.832 127.908 18.7227 127.74 18.5898 127.611C18.4609 127.482 18.3105 127.389 18.1387 127.33C17.9707 127.268 17.7813 127.236 17.5703 127.236C17.3125 127.236 17.084 127.285 16.8848 127.383C16.6855 127.477 16.5176 127.627 16.3809 127.834C16.248 128.041 16.1465 128.312 16.0762 128.648C16.0059 128.984 15.9707 129.393 15.9707 129.873V131.531C15.9707 131.914 15.9922 132.252 16.0352 132.545C16.082 132.838 16.1504 133.092 16.2402 133.307C16.3301 133.518 16.4395 133.691 16.5684 133.828C16.6973 133.965 16.8457 134.066 17.0137 134.133C17.1855 134.195 17.375 134.227 17.582 134.227C17.8477 134.227 18.0801 134.176 18.2793 134.074C18.4785 133.973 18.6445 133.814 18.7773 133.6C18.9141 133.381 19.0156 133.102 19.082 132.762C19.1484 132.418 19.1816 132.008 19.1816 131.531Z" fill="#49545A"/>
<path d="M9.53711 161.939L8.66992 161.717L9.09766 157.469H13.4746V158.471H10.0176L9.75977 160.791C9.91602 160.701 10.1133 160.617 10.3516 160.539C10.5938 160.461 10.8711 160.422 11.1836 160.422C11.5781 160.422 11.9316 160.49 12.2441 160.627C12.5566 160.76 12.8223 160.951 13.041 161.201C13.2637 161.451 13.4336 161.752 13.5508 162.104C13.668 162.455 13.7266 162.848 13.7266 163.281C13.7266 163.691 13.6699 164.068 13.5566 164.412C13.4473 164.756 13.2813 165.057 13.0586 165.314C12.8359 165.568 12.5547 165.766 12.2148 165.906C11.8789 166.047 11.4824 166.117 11.0254 166.117C10.6816 166.117 10.3555 166.07 10.0469 165.977C9.74219 165.879 9.46875 165.732 9.22656 165.537C8.98828 165.338 8.79297 165.092 8.64063 164.799C8.49219 164.502 8.39844 164.154 8.35938 163.756H9.39063C9.4375 164.076 9.53125 164.346 9.67188 164.564C9.8125 164.783 9.9961 164.949 10.2227 165.062C10.4531 165.172 10.7207 165.227 11.0254 165.227C11.2832 165.227 11.5117 165.182 11.7109 165.092C11.9102 165.002 12.0781 164.873 12.2148 164.705C12.3516 164.537 12.4551 164.334 12.5254 164.096C12.5996 163.857 12.6367 163.59 12.6367 163.293C12.6367 163.023 12.5996 162.773 12.5254 162.543C12.4512 162.312 12.3398 162.111 12.1914 161.939C12.0469 161.768 11.8691 161.635 11.6582 161.541C11.4473 161.443 11.2051 161.395 10.9316 161.395C10.5684 161.395 10.293 161.443 10.1055 161.541C9.92188 161.639 9.73242 161.771 9.53711 161.939ZM20.2715 161.055V162.355C20.2715 163.055 20.209 163.645 20.084 164.125C19.959 164.605 19.7793 164.992 19.5449 165.285C19.3105 165.578 19.0273 165.791 18.6953 165.924C18.3672 166.053 17.9961 166.117 17.582 166.117C17.2539 166.117 16.9512 166.076 16.6738 165.994C16.3965 165.912 16.1465 165.781 15.9238 165.602C15.7051 165.418 15.5176 165.18 15.3613 164.887C15.2051 164.594 15.0859 164.238 15.0039 163.82C14.9219 163.402 14.8809 162.914 14.8809 162.355V161.055C14.8809 160.355 14.9434 159.77 15.0684 159.297C15.1973 158.824 15.3789 158.445 15.6133 158.16C15.8477 157.871 16.1289 157.664 16.457 157.539C16.7891 157.414 17.1602 157.352 17.5703 157.352C17.9023 157.352 18.207 157.393 18.4844 157.475C18.7656 157.553 19.0156 157.68 19.2344 157.855C19.4531 158.027 19.6387 158.258 19.791 158.547C19.9473 158.832 20.0664 159.182 20.1484 159.596C20.2305 160.01 20.2715 160.496 20.2715 161.055ZM19.1816 162.531V160.873C19.1816 160.49 19.1582 160.154 19.1113 159.865C19.0684 159.572 19.0039 159.322 18.918 159.115C18.832 158.908 18.7227 158.74 18.5898 158.611C18.4609 158.482 18.3105 158.389 18.1387 158.33C17.9707 158.268 17.7813 158.236 17.5703 158.236C17.3125 158.236 17.084 158.285 16.8848 158.383C16.6855 158.477 16.5176 158.627 16.3809 158.834C16.248 159.041 16.1465 159.312 16.0762 159.648C16.0059 159.984 15.9707 160.393 15.9707 160.873V162.531C15.9707 162.914 15.9922 163.252 16.0352 163.545C16.082 163.838 16.1504 164.092 16.2402 164.307C16.3301 164.518 16.4395 164.691 16.5684 164.828C16.6973 164.965 16.8457 165.066 17.0137 165.133C17.1855 165.195 17.375 165.227 17.582 165.227C17.8477 165.227 18.0801 165.176 18.2793 165.074C18.4785 164.973 18.6445 164.814 18.7773 164.6C18.9141 164.381 19.0156 164.102 19.082 163.762C19.1484 163.418 19.1816 163.008 19.1816 162.531Z" fill="#49545A"/>
<path d="M13.9316 194.129V195.02H7.76758V194.381L11.5879 188.469H12.4727L11.5234 190.18L8.99805 194.129H13.9316ZM12.7422 188.469V197H11.6582V188.469H12.7422ZM20.2715 192.055V193.355C20.2715 194.055 20.209 194.645 20.084 195.125C19.959 195.605 19.7793 195.992 19.5449 196.285C19.3105 196.578 19.0273 196.791 18.6953 196.924C18.3672 197.053 17.9961 197.117 17.582 197.117C17.2539 197.117 16.9512 197.076 16.6738 196.994C16.3965 196.912 16.1465 196.781 15.9238 196.602C15.7051 196.418 15.5176 196.18 15.3613 195.887C15.2051 195.594 15.0859 195.238 15.0039 194.82C14.9219 194.402 14.8809 193.914 14.8809 193.355V192.055C14.8809 191.355 14.9434 190.77 15.0684 190.297C15.1973 189.824 15.3789 189.445 15.6133 189.16C15.8477 188.871 16.1289 188.664 16.457 188.539C16.7891 188.414 17.1602 188.352 17.5703 188.352C17.9023 188.352 18.207 188.393 18.4844 188.475C18.7656 188.553 19.0156 188.68 19.2344 188.855C19.4531 189.027 19.6387 189.258 19.791 189.547C19.9473 189.832 20.0664 190.182 20.1484 190.596C20.2305 191.01 20.2715 191.496 20.2715 192.055ZM19.1816 193.531V191.873C19.1816 191.49 19.1582 191.154 19.1113 190.865C19.0684 190.572 19.0039 190.322 18.918 190.115C18.832 189.908 18.7227 189.74 18.5898 189.611C18.4609 189.482 18.3105 189.389 18.1387 189.33C17.9707 189.268 17.7813 189.236 17.5703 189.236C17.3125 189.236 17.084 189.285 16.8848 189.383C16.6855 189.477 16.5176 189.627 16.3809 189.834C16.248 190.041 16.1465 190.312 16.0762 190.648C16.0059 190.984 15.9707 191.393 15.9707 191.873V193.531C15.9707 193.914 15.9922 194.252 16.0352 194.545C16.082 194.838 16.1504 195.092 16.2402 195.307C16.3301 195.518 16.4395 195.691 16.5684 195.828C16.6973 195.965 16.8457 196.066 17.0137 196.133C17.1855 196.195 17.375 196.227 17.582 196.227C17.8477 196.227 18.0801 196.176 18.2793 196.074C18.4785 195.973 18.6445 195.814 18.7773 195.6C18.9141 195.381 19.0156 195.102 19.082 194.762C19.1484 194.418 19.1816 194.008 19.1816 193.531Z" fill="#49545A"/>
<path d="M9.74805 223.201H10.5215C10.9004 223.201 11.2129 223.139 11.459 223.014C11.709 222.885 11.8945 222.711 12.0156 222.492C12.1406 222.27 12.2031 222.02 12.2031 221.742C12.2031 221.414 12.1484 221.139 12.0391 220.916C11.9297 220.693 11.7656 220.525 11.5469 220.412C11.3281 220.299 11.0508 220.242 10.7148 220.242C10.4102 220.242 10.1406 220.303 9.90625 220.424C9.67578 220.541 9.49414 220.709 9.36133 220.928C9.23242 221.146 9.16797 221.404 9.16797 221.701H8.08399C8.08399 221.268 8.19336 220.873 8.41211 220.518C8.63086 220.162 8.9375 219.879 9.33203 219.668C9.73047 219.457 10.1914 219.352 10.7148 219.352C11.2305 219.352 11.6816 219.443 12.0684 219.627C12.4551 219.807 12.7559 220.076 12.9707 220.436C13.1855 220.791 13.293 221.234 13.293 221.766C13.293 221.98 13.2422 222.211 13.1406 222.457C13.043 222.699 12.8887 222.926 12.6777 223.137C12.4707 223.348 12.2012 223.521 11.8691 223.658C11.5371 223.791 11.1387 223.857 10.6738 223.857H9.74805V223.201ZM9.74805 224.092V223.441H10.6738C11.2168 223.441 11.666 223.506 12.0215 223.635C12.377 223.764 12.6563 223.936 12.8594 224.15C13.0664 224.365 13.2109 224.602 13.293 224.859C13.3789 225.113 13.4219 225.367 13.4219 225.621C13.4219 226.02 13.3535 226.373 13.2168 226.682C13.084 226.99 12.8945 227.252 12.6484 227.467C12.4063 227.682 12.1211 227.844 11.793 227.953C11.4648 228.062 11.1074 228.117 10.7207 228.117C10.3496 228.117 10 228.064 9.67188 227.959C9.34766 227.854 9.06055 227.701 8.81055 227.502C8.56055 227.299 8.36524 227.051 8.22461 226.758C8.08399 226.461 8.01367 226.123 8.01367 225.744H9.09766C9.09766 226.041 9.16211 226.301 9.29102 226.523C9.42383 226.746 9.61133 226.92 9.85352 227.045C10.0996 227.166 10.3887 227.227 10.7207 227.227C11.0527 227.227 11.3379 227.17 11.5762 227.057C11.8184 226.939 12.0039 226.764 12.1328 226.529C12.2656 226.295 12.332 226 12.332 225.645C12.332 225.289 12.2578 224.998 12.1094 224.771C11.9609 224.541 11.75 224.371 11.4766 224.262C11.207 224.148 10.8887 224.092 10.5215 224.092H9.74805ZM20.2715 223.055V224.355C20.2715 225.055 20.209 225.645 20.084 226.125C19.959 226.605 19.7793 226.992 19.5449 227.285C19.3105 227.578 19.0273 227.791 18.6953 227.924C18.3672 228.053 17.9961 228.117 17.582 228.117C17.2539 228.117 16.9512 228.076 16.6738 227.994C16.3965 227.912 16.1465 227.781 15.9238 227.602C15.7051 227.418 15.5176 227.18 15.3613 226.887C15.2051 226.594 15.0859 226.238 15.0039 225.82C14.9219 225.402 14.8809 224.914 14.8809 224.355V223.055C14.8809 222.355 14.9434 221.77 15.0684 221.297C15.1973 220.824 15.3789 220.445 15.6133 220.16C15.8477 219.871 16.1289 219.664 16.457 219.539C16.7891 219.414 17.1602 219.352 17.5703 219.352C17.9023 219.352 18.207 219.393 18.4844 219.475C18.7656 219.553 19.0156 219.68 19.2344 219.855C19.4531 220.027 19.6387 220.258 19.791 220.547C19.9473 220.832 20.0664 221.182 20.1484 221.596C20.2305 222.01 20.2715 222.496 20.2715 223.055ZM19.1816 224.531V222.873C19.1816 222.49 19.1582 222.154 19.1113 221.865C19.0684 221.572 19.0039 221.322 18.918 221.115C18.832 220.908 18.7227 220.74 18.5898 220.611C18.4609 220.482 18.3105 220.389 18.1387 220.33C17.9707 220.268 17.7813 220.236 17.5703 220.236C17.3125 220.236 17.084 220.285 16.8848 220.383C16.6855 220.477 16.5176 220.627 16.3809 220.834C16.248 221.041 16.1465 221.312 16.0762 221.648C16.0059 221.984 15.9707 222.393 15.9707 222.873V224.531C15.9707 224.914 15.9922 225.252 16.0352 225.545C16.082 225.838 16.1504 226.092 16.2402 226.307C16.3301 226.518 16.4395 226.691 16.5684 226.828C16.6973 226.965 16.8457 227.066 17.0137 227.133C17.1855 227.195 17.375 227.227 17.582 227.227C17.8477 227.227 18.0801 227.176 18.2793 227.074C18.4785 226.973 18.6445 226.814 18.7773 226.6C18.9141 226.381 19.0156 226.102 19.082 225.762C19.1484 225.418 19.1816 225.008 19.1816 224.531Z" fill="#49545A"/>
<path d="M13.7559 258.109V259H8.17188V258.221L10.9668 255.109C11.3105 254.727 11.5762 254.402 11.7637 254.137C11.9551 253.867 12.0879 253.627 12.1621 253.416C12.2402 253.201 12.2793 252.982 12.2793 252.76C12.2793 252.479 12.2207 252.225 12.1035 251.998C11.9902 251.768 11.8223 251.584 11.5996 251.447C11.377 251.311 11.1074 251.242 10.791 251.242C10.4121 251.242 10.0957 251.316 9.8418 251.465C9.5918 251.609 9.4043 251.812 9.2793 252.074C9.1543 252.336 9.0918 252.637 9.0918 252.977H8.00781C8.00781 252.496 8.11328 252.057 8.32422 251.658C8.53516 251.26 8.84766 250.943 9.26172 250.709C9.67578 250.471 10.1855 250.352 10.791 250.352C11.3301 250.352 11.791 250.447 12.1738 250.639C12.5566 250.826 12.8496 251.092 13.0527 251.436C13.2598 251.775 13.3633 252.174 13.3633 252.631C13.3633 252.881 13.3203 253.135 13.2344 253.393C13.1523 253.646 13.0371 253.9 12.8887 254.154C12.7441 254.408 12.5742 254.658 12.3789 254.904C12.1875 255.15 11.9824 255.393 11.7637 255.631L9.47852 258.109H13.7559ZM20.2715 254.055V255.355C20.2715 256.055 20.209 256.645 20.084 257.125C19.959 257.605 19.7793 257.992 19.5449 258.285C19.3105 258.578 19.0273 258.791 18.6953 258.924C18.3672 259.053 17.9961 259.117 17.582 259.117C17.2539 259.117 16.9512 259.076 16.6738 258.994C16.3965 258.912 16.1465 258.781 15.9238 258.602C15.7051 258.418 15.5176 258.18 15.3613 257.887C15.2051 257.594 15.0859 257.238 15.0039 256.82C14.9219 256.402 14.8809 255.914 14.8809 255.355V254.055C14.8809 253.355 14.9434 252.77 15.0684 252.297C15.1973 251.824 15.3789 251.445 15.6133 251.16C15.8477 250.871 16.1289 250.664 16.457 250.539C16.7891 250.414 17.1602 250.352 17.5703 250.352C17.9023 250.352 18.207 250.393 18.4844 250.475C18.7656 250.553 19.0156 250.68 19.2344 250.855C19.4531 251.027 19.6387 251.258 19.791 251.547C19.9473 251.832 20.0664 252.182 20.1484 252.596C20.2305 253.01 20.2715 253.496 20.2715 254.055ZM19.1816 255.531V253.873C19.1816 253.49 19.1582 253.154 19.1113 252.865C19.0684 252.572 19.0039 252.322 18.918 252.115C18.832 251.908 18.7227 251.74 18.5898 251.611C18.4609 251.482 18.3105 251.389 18.1387 251.33C17.9707 251.268 17.7813 251.236 17.5703 251.236C17.3125 251.236 17.084 251.285 16.8848 251.383C16.6855 251.477 16.5176 251.627 16.3809 251.834C16.248 252.041 16.1465 252.312 16.0762 252.648C16.0059 252.984 15.9707 253.393 15.9707 253.873V255.531C15.9707 255.914 15.9922 256.252 16.0352 256.545C16.082 256.838 16.1504 257.092 16.2402 257.307C16.3301 257.518 16.4395 257.691 16.5684 257.828C16.6973 257.965 16.8457 258.066 17.0137 258.133C17.1855 258.195 17.375 258.227 17.582 258.227C17.8477 258.227 18.0801 258.176 18.2793 258.074C18.4785 257.973 18.6445 257.814 18.7773 257.6C18.9141 257.381 19.0156 257.102 19.082 256.762C19.1484 256.418 19.1816 256.008 19.1816 255.531Z" fill="#49545A"/>
<path d="M11.7285 281.422V290H10.6445V282.775L8.45899 283.572V282.594L11.5586 281.422H11.7285ZM20.2715 285.055V286.355C20.2715 287.055 20.209 287.645 20.084 288.125C19.959 288.605 19.7793 288.992 19.5449 289.285C19.3105 289.578 19.0273 289.791 18.6953 289.924C18.3672 290.053 17.9961 290.117 17.582 290.117C17.2539 290.117 16.9512 290.076 16.6738 289.994C16.3965 289.912 16.1465 289.781 15.9238 289.602C15.7051 289.418 15.5176 289.18 15.3613 288.887C15.2051 288.594 15.0859 288.238 15.0039 287.82C14.9219 287.402 14.8809 286.914 14.8809 286.355V285.055C14.8809 284.355 14.9434 283.77 15.0684 283.297C15.1973 282.824 15.3789 282.445 15.6133 282.16C15.8477 281.871 16.1289 281.664 16.457 281.539C16.7891 281.414 17.1602 281.352 17.5703 281.352C17.9023 281.352 18.207 281.393 18.4844 281.475C18.7656 281.553 19.0156 281.68 19.2344 281.855C19.4531 282.027 19.6387 282.258 19.791 282.547C19.9473 282.832 20.0664 283.182 20.1484 283.596C20.2305 284.01 20.2715 284.496 20.2715 285.055ZM19.1816 286.531V284.873C19.1816 284.49 19.1582 284.154 19.1113 283.865C19.0684 283.572 19.0039 283.322 18.918 283.115C18.832 282.908 18.7227 282.74 18.5898 282.611C18.4609 282.482 18.3105 282.389 18.1387 282.33C17.9707 282.268 17.7813 282.236 17.5703 282.236C17.3125 282.236 17.084 282.285 16.8848 282.383C16.6855 282.477 16.5176 282.627 16.3809 282.834C16.248 283.041 16.1465 283.312 16.0762 283.648C16.0059 283.984 15.9707 284.393 15.9707 284.873V286.531C15.9707 286.914 15.9922 287.252 16.0352 287.545C16.082 287.838 16.1504 288.092 16.2402 288.307C16.3301 288.518 16.4395 288.691 16.5684 288.828C16.6973 288.965 16.8457 289.066 17.0137 289.133C17.1855 289.195 17.375 289.227 17.582 289.227C17.8477 289.227 18.0801 289.176 18.2793 289.074C18.4785 288.973 18.6445 288.814 18.7773 288.6C18.9141 288.381 19.0156 288.102 19.082 287.762C19.1484 287.418 19.1816 287.008 19.1816 286.531Z" fill="#49545A"/>
<path d="M20.2712 316.055V317.355C20.2712 318.055 20.2087 318.645 20.0837 319.125C19.9587 319.605 19.7791 319.992 19.5447 320.285C19.3103 320.578 19.0271 320.791 18.6951 320.924C18.3669 321.053 17.9959 321.117 17.5818 321.117C17.2537 321.117 16.9509 321.076 16.6736 320.994C16.3962 320.912 16.1462 320.781 15.9236 320.602C15.7048 320.418 15.5173 320.18 15.3611 319.887C15.2048 319.594 15.0857 319.238 15.0037 318.82C14.9216 318.402 14.8806 317.914 14.8806 317.355V316.055C14.8806 315.355 14.9431 314.77 15.0681 314.297C15.197 313.824 15.3787 313.445 15.613 313.16C15.8474 312.871 16.1287 312.664 16.4568 312.539C16.7888 312.414 17.1599 312.352 17.5701 312.352C17.9021 312.352 18.2068 312.393 18.4841 312.475C18.7654 312.553 19.0154 312.68 19.2341 312.855C19.4529 313.027 19.6384 313.258 19.7908 313.547C19.947 313.832 20.0662 314.182 20.1482 314.596C20.2302 315.01 20.2712 315.496 20.2712 316.055ZM19.1814 317.531V315.873C19.1814 315.49 19.158 315.154 19.1111 314.865C19.0681 314.572 19.0037 314.322 18.9177 314.115C18.8318 313.908 18.7224 313.74 18.5896 313.611C18.4607 313.482 18.3103 313.389 18.1384 313.33C17.9705 313.268 17.781 313.236 17.5701 313.236C17.3123 313.236 17.0837 313.285 16.8845 313.383C16.6853 313.477 16.5173 313.627 16.3806 313.834C16.2478 314.041 16.1462 314.312 16.0759 314.648C16.0056 314.984 15.9705 315.393 15.9705 315.873V317.531C15.9705 317.914 15.9919 318.252 16.0349 318.545C16.0818 318.838 16.1501 319.092 16.24 319.307C16.3298 319.518 16.4392 319.691 16.5681 319.828C16.697 319.965 16.8455 320.066 17.0134 320.133C17.1853 320.195 17.3748 320.227 17.5818 320.227C17.8474 320.227 18.0798 320.176 18.2791 320.074C18.4783 319.973 18.6443 319.814 18.7771 319.6C18.9138 319.381 19.0154 319.102 19.0818 318.762C19.1482 318.418 19.1814 318.008 19.1814 317.531Z" fill="#49545A"/>
<path d="M74.8623 301.872V274.692C74.8623 273.312 73.743 272.192 72.3623 272.192C70.9816 272.192 69.8623 273.312 69.8623 274.692V301.872C69.8623 303.252 70.9816 304.372 72.3623 304.372C73.743 304.372 74.8623 303.252 74.8623 301.872Z" fill="#4050E7"/>
<path d="M148.862 301.872V211.376C148.862 209.996 147.743 208.876 146.362 208.876C144.982 208.876 143.862 209.996 143.862 211.376V301.872C143.862 303.252 144.982 304.372 146.362 304.372C147.743 304.372 148.862 303.252 148.862 301.872Z" fill="#4050E7"/>
<path d="M222.862 301.872V264.27C222.862 262.889 221.743 261.77 220.362 261.77C218.982 261.77 217.862 262.889 217.862 264.27V301.872C217.862 303.252 218.982 304.372 220.362 304.372C221.743 304.372 222.862 303.252 222.862 301.872Z" fill="#4050E7"/>
<path d="M296.862 301.872V253.587C296.862 252.206 295.743 251.087 294.362 251.087C292.982 251.087 291.862 252.206 291.862 253.587V301.872C291.862 303.252 292.982 304.372 294.362 304.372C295.743 304.372 296.862 303.252 296.862 301.872Z" fill="#4050E7"/>
<path d="M370.862 301.872V180.5C370.862 179.119 369.743 178 368.362 178C366.982 178 365.862 179.119 365.862 180.5V301.871C365.862 303.252 366.982 304.371 368.362 304.371C369.743 304.371 370.862 303.252 370.862 301.872Z" fill="#4050E7"/>
<path d="M444.862 301.872V264.27C444.862 262.889 443.743 261.77 442.362 261.77C440.982 261.77 439.862 262.889 439.862 264.27V301.872C439.862 303.252 440.982 304.372 442.362 304.372C443.743 304.372 444.862 303.252 444.862 301.872Z" fill="#4050E7"/>
<path d="M518.862 301.871V222.059C518.862 220.679 517.743 219.559 516.362 219.559C514.982 219.559 513.862 220.679 513.862 222.059V301.871C513.862 303.252 514.982 304.371 516.362 304.371C517.743 304.371 518.862 303.252 518.862 301.871Z" fill="#4050E7"/>
<path d="M592.862 301.871V242.904C592.862 241.523 591.743 240.404 590.362 240.404C588.982 240.404 587.862 241.523 587.862 242.904V301.871C587.862 303.252 588.982 304.371 590.362 304.371C591.743 304.371 592.862 303.252 592.862 301.871Z" fill="#4050E7"/>
<path d="M666.862 301.872V264.27C666.862 262.889 665.743 261.77 664.362 261.77C662.982 261.77 661.862 262.889 661.862 264.27V301.872C661.862 303.252 662.982 304.372 664.362 304.372C665.743 304.372 666.862 303.252 666.862 301.872Z" fill="#4050E7"/>
<path d="M740.862 301.872V195.873C740.862 194.492 739.743 193.373 738.362 193.373C736.982 193.373 735.862 194.492 735.862 195.873V301.872C735.862 303.252 736.982 304.372 738.362 304.372C739.743 304.372 740.862 303.252 740.862 301.872Z" fill="#4050E7"/>
<path d="M814.862 301.871V221.799C814.862 220.418 813.743 219.299 812.362 219.299C810.982 219.299 809.862 220.418 809.862 221.799V301.871C809.862 303.252 810.982 304.371 812.362 304.371C813.743 304.371 814.862 303.252 814.862 301.871Z" fill="#4050E7"/>
<path d="M888.862 301.872V264.27C888.862 262.889 887.743 261.77 886.362 261.77C884.982 261.77 883.862 262.889 883.862 264.27V301.872C883.862 303.252 884.982 304.372 886.362 304.372C887.743 304.372 888.862 303.252 888.862 301.872Z" fill="#4050E7"/>
<path d="M68 301.766V248.641C68 247.26 66.8807 246.141 65.5 246.141C64.1193 246.141 63 247.26 63 248.641V301.766C63 303.147 64.1193 304.266 65.5 304.266C66.8807 304.266 68 303.147 68 301.766Z" fill="#FBC02D"/>
<path d="M142 301.766V134.272C142 132.892 140.881 131.772 139.5 131.772C138.119 131.772 137 132.892 137 134.272V301.766C137 303.147 138.119 304.266 139.5 304.266C140.881 304.266 142 303.147 142 301.766Z" fill="#FBC02D"/>
<path d="M216 301.766V229.815C216 228.434 214.881 227.315 213.5 227.315C212.119 227.315 211 228.434 211 229.815V301.766C211 303.147 212.119 304.266 213.5 304.266C214.881 304.266 216 303.147 216 301.766Z" fill="#FBC02D"/>
<path d="M290 301.766V210.518C290 209.137 288.881 208.018 287.5 208.018C286.119 208.018 285 209.137 285 210.518V301.766C285 303.147 286.119 304.266 287.5 304.266C288.881 304.266 290 303.147 290 301.766Z" fill="#FBC02D"/>
<path d="M364 301.766V78.5C364 77.1193 362.881 76 361.5 76C360.119 76 359 77.1193 359 78.5V301.766C359 303.147 360.119 304.266 361.5 304.266C362.881 304.266 364 303.147 364 301.766Z" fill="#FBC02D"/>
<path d="M438 301.766V229.815C438 228.434 436.881 227.315 435.5 227.315C434.119 227.315 433 228.434 433 229.815V301.766C433 303.147 434.119 304.266 435.5 304.266C436.881 304.266 438 303.147 438 301.766Z" fill="#FBC02D"/>
<path d="M512 301.766V153.569C512 152.188 510.881 151.069 509.5 151.069C508.119 151.069 507 152.188 507 153.569V301.766C507 303.147 508.119 304.266 509.5 304.266C510.881 304.266 512 303.147 512 301.766Z" fill="#FBC02D"/>
<path d="M586 301.766V191.221C586 189.841 584.881 188.721 583.5 188.721C582.119 188.721 581 189.841 581 191.221V301.766C581 303.147 582.119 304.266 583.5 304.266C584.881 304.266 586 303.147 586 301.766Z" fill="#FBC02D"/>
<path d="M660 301.766V229.815C660 228.434 658.881 227.315 657.5 227.315C656.119 227.315 655 228.434 655 229.815V301.766C655 303.147 656.119 304.266 657.5 304.266C658.881 304.266 660 303.147 660 301.766Z" fill="#FBC02D"/>
<path d="M734 301.766V106.268C734 104.888 732.881 103.768 731.5 103.768C730.119 103.768 729 104.888 729 106.268V301.766C729 303.147 730.119 304.266 731.5 304.266C732.881 304.266 734 303.147 734 301.766Z" fill="#FBC02D"/>
<path d="M808 301.766V153.098C808 151.718 806.881 150.598 805.5 150.598C804.119 150.598 803 151.718 803 153.098V301.766C803 303.147 804.119 304.266 805.5 304.266C806.881 304.266 808 303.147 808 301.766Z" fill="#FBC02D"/>
<path d="M882 301.766V229.815C882 228.434 880.881 227.315 879.5 227.315C878.119 227.315 877 228.434 877 229.815V301.766C877 303.147 878.119 304.266 879.5 304.266C880.881 304.266 882 303.147 882 301.766Z" fill="#FBC02D"/>
</svg>
