<svg width="22" height="22" viewBox="0 0 22 22" fill="none" xmlns="http://www.w3.org/2000/svg">
<path d="M0.854492 19.5939V19.9096C0.854492 20.7849 1.56474 21.4955 2.43999 21.4955H19.5602C20.4355 21.4955 21.1461 20.7849 21.1461 19.9096V19.5939H0.854492Z" fill="#4050E7"/>
<path d="M19.3976 6.41638H17.3977V7.72551H19.0503V17.6454H2.95122V7.72551H4.60722V6.41638H2.60434C2.07409 6.41638 1.64209 6.84838 1.64209 7.37526V18.9384H20.3595V7.37526C20.3595 6.84838 19.9275 6.41638 19.3976 6.41638Z" fill="#4050E7"/>
<path d="M19.8716 3.43137L11.0973 0.966867C11.0381 0.950742 10.9762 0.950742 10.9203 0.966867L2.12959 3.42799C1.98896 3.46699 1.89071 3.59487 1.89071 3.73887C1.88734 3.88287 1.98221 4.01374 2.11984 4.05649C14.1667 7.44274 10.0117 6.27462 10.9106 6.52737C10.9661 6.54124 11.0223 6.53937 11.0775 6.52737L13.4407 5.90712V5.64949L11.6501 4.33437C11.5042 4.22749 11.4727 4.02237 11.58 3.87724C11.6865 3.73137 11.892 3.69987 12.0375 3.80674L13.9616 5.22049C14.0456 5.28237 14.0951 5.37987 14.0951 5.48412V5.73537C22.0245 3.43887 19.2896 4.23124 19.8813 4.05987C20.019 4.01712 20.1138 3.88624 20.1105 3.74224C20.1108 3.59487 20.0122 3.47074 19.8716 3.43137Z" fill="#4050E7"/>
<path d="M14.8595 8.35401C14.8595 8.79163 14.6007 9.16663 14.2302 9.34176C15.5446 9.16776 16.7461 8.85988 16.7461 8.32101C16.7461 8.31126 16.7461 8.29476 16.7431 8.27826V5.77138C16.7431 5.75151 16.7431 5.73538 16.7363 5.71588L16.7067 5.72563L14.0952 6.41113V7.31451C14.5325 7.45363 14.8595 7.85713 14.8595 8.35401Z" fill="#4050E7"/>
<path d="M13.3296 8.35399C13.3296 8.59661 13.5261 8.79424 13.7672 8.79424C14.0083 8.79424 14.2048 8.59661 14.2048 8.35399C14.2048 8.10124 13.996 7.91749 13.7683 7.91711H13.768C13.7672 7.91711 13.7668 7.91711 13.7668 7.91711C13.5205 7.91711 13.3296 8.11699 13.3296 8.35399Z" fill="#4050E7"/>
<path d="M12.6752 8.35399C12.6752 7.88036 12.9756 7.45811 13.4409 7.31411V6.58286L11.2446 7.15924C11.0792 7.19936 10.9205 7.20536 10.757 7.16261C10.1233 6.99611 12.9114 7.72924 5.26855 5.71924C5.25805 5.74511 5.2588 8.29324 5.2588 8.32099C5.2588 9.46661 9.65417 9.55811 11.0023 9.55811C11.3379 9.55811 12.4063 9.53224 13.532 9.42161C13.0427 9.31361 12.6752 8.87674 12.6752 8.35399Z" fill="#4050E7"/>
</svg>
