<svg width="24" height="24" viewBox="0 0 24 24" fill="none" xmlns="http://www.w3.org/2000/svg">
<path d="M19.1765 5.15363H17.6911V5.57588C17.6911 6.294 17.1087 6.876 16.391 6.876C15.6728 6.876 15.0908 6.294 15.0908 5.57588V5.15363H8.96447V5.57588C8.96447 6.294 8.38247 6.876 7.66435 6.876C6.94622 6.876 6.3646 6.294 6.3646 5.57588V5.15363H4.8241C3.94285 5.15175 3.22697 5.86463 3.2251 6.74625C3.2251 6.74738 3.2251 6.7485 3.2251 6.74963V9.14813H20.7751V6.74963C20.7751 5.86838 20.0603 5.154 19.1791 5.154C19.1783 5.15363 19.1772 5.15363 19.1765 5.15363ZM3.2251 10.4479V19.6193C3.2251 20.5009 3.93947 21.2153 4.82072 21.2153C4.82185 21.2153 4.82297 21.2153 4.82372 21.2153H19.1761C20.0573 21.2171 20.7728 20.5043 20.7751 19.623C20.7751 19.6215 20.7751 19.6208 20.7751 19.6193V10.4479H3.2251Z" fill="#4050E7"/>
<path d="M17.0405 3.43424V5.57586C17.0405 5.93511 16.7498 6.22574 16.391 6.22574C16.0321 6.22574 15.7407 5.93474 15.7407 5.57586V3.43424C15.7407 3.07536 16.0321 2.78436 16.391 2.78436C16.7498 2.78436 17.0405 3.07536 17.0405 3.43424Z" fill="#4050E7"/>
<path d="M8.3144 3.43424V5.57586C8.3144 5.93511 8.0234 6.22574 7.66452 6.22574C7.30565 6.22574 7.01465 5.93474 7.01465 5.57586V3.43424C7.01465 3.07536 7.30565 2.78436 7.66452 2.78436C8.0234 2.78474 8.3144 3.07536 8.3144 3.43424Z" fill="#4050E7"/>
</svg>
