<svg width="66" height="53" viewBox="0 0 66 53" fill="none" xmlns="http://www.w3.org/2000/svg">
<path fill-rule="evenodd" clip-rule="evenodd" d="M10.5367 16.288C12.4317 12.7996 14.4931 9.00512 18.3176 5.86834C27.3529 -1.54221 36.4958 -0.194813 46.1765 7.88936C55.8572 15.9735 65 13.2788 65 13.2788V33.3369V40.0737V48.2C65 50.4092 63.2091 52.2 61 52.2H5C2.79086 52.2 1 50.4092 1 48.2V40.0737V33.3369V26.0789C6.03316 24.5778 8.15337 20.675 10.5367 16.288Z" fill="#ffffff" fill-opacity="0.2"/>
<path d="M1 28.2285C10.0353 25.3028 9.68337 13.9743 18.3176 6.28562C27.3529 -1.76012 36.4958 -0.297232 46.1765 8.47987C55.8572 17.257 65 14.3313 65 14.3313" stroke="#ffffff" stroke-width="2" stroke-linecap="round"/>
</svg>
