<svg width="66" height="53" viewBox="0 0 66 53" fill="none" xmlns="http://www.w3.org/2000/svg">
<path fill-rule="evenodd" clip-rule="evenodd" d="M1 1C5.41379 1 8.35632 1.70137 10.5632 10.1178C12.7701 18.5342 17.9195 23.4438 25.2759 23.4438C32.6322 23.4438 37.046 18.7096 40.7241 14.326C43.6667 10.8192 47.3448 6.61096 51.7586 4.50685C56.1724 2.40274 61.3218 3.80548 65 7.31233V28.3535V37.4712V48.2C65 50.4092 63.2091 52.2 61 52.2H5C2.79086 52.2 1 50.4092 1 48.2V37.4712V28.3535V1Z" fill="#ffffff" fill-opacity="0.2"/>
<path d="M1 1C5.41379 1 8.35632 1.73143 10.5632 10.5086C12.7701 19.2857 17.9195 24.4057 25.2759 24.4057C32.6322 24.4057 37.046 19.4686 40.7241 14.8971C43.6667 11.24 47.3448 6.85143 51.7586 4.65714C56.1724 2.46286 61.3218 3.92571 65 7.58286" stroke="#ffffff" stroke-width="2" stroke-linecap="round"/>
</svg>
